<svg width="235" height="77" viewBox="0 0 235 77" fill="none" xmlns="http://www.w3.org/2000/svg">
<path d="M22.6364 27.0909V34.3636H1.09091V27.0909H22.6364ZM6.02273 62V24.5682C6.02273 22.0379 6.51515 19.9394 7.5 18.2727C8.5 16.6061 9.86364 15.3561 11.5909 14.5227C13.3182 13.6894 15.2803 13.2727 17.4773 13.2727C18.9621 13.2727 20.3182 13.3864 21.5455 13.6136C22.7879 13.8409 23.7121 14.0455 24.3182 14.2273L22.5909 21.5C22.2121 21.3788 21.7424 21.2651 21.1818 21.1591C20.6364 21.053 20.0758 21 19.5 21C18.0758 21 17.0833 21.3333 16.5227 22C15.9621 22.6515 15.6818 23.5682 15.6818 24.75V62H6.02273ZM28.5511 62V27.0909H38.233V62H28.5511ZM33.4148 22.5909C31.9754 22.5909 30.7405 22.1136 29.7102 21.1591C28.6951 20.1894 28.1875 19.0303 28.1875 17.6818C28.1875 16.3485 28.6951 15.2045 29.7102 14.25C30.7405 13.2803 31.9754 12.7955 33.4148 12.7955C34.8542 12.7955 36.0814 13.2803 37.0966 14.25C38.1269 15.2045 38.642 16.3485 38.642 17.6818C38.642 19.0303 38.1269 20.1894 37.0966 21.1591C36.0814 22.1136 34.8542 22.5909 33.4148 22.5909ZM55.6705 41.8182V62H45.9886V27.0909H55.2159V33.25H55.625C56.3977 31.2197 57.6932 29.6136 59.5114 28.4318C61.3295 27.2348 63.5341 26.6364 66.125 26.6364C68.5492 26.6364 70.6629 27.1667 72.4659 28.2273C74.2689 29.2879 75.6705 30.803 76.6705 32.7727C77.6705 34.7273 78.1705 37.0606 78.1705 39.7727V62H68.4886V41.5C68.5038 39.3636 67.9583 37.697 66.8523 36.5C65.7462 35.2879 64.2235 34.6818 62.2841 34.6818C60.9811 34.6818 59.8295 34.9621 58.8295 35.5227C57.8447 36.0833 57.072 36.9015 56.5114 37.9773C55.9659 39.0379 55.6856 40.3182 55.6705 41.8182ZM95.7557 62.6591C93.5284 62.6591 91.5436 62.2727 89.8011 61.5C88.0587 60.7121 86.6799 59.553 85.6648 58.0227C84.6648 56.4773 84.1648 54.553 84.1648 52.25C84.1648 50.3106 84.5208 48.6818 85.233 47.3636C85.9451 46.0455 86.9148 44.9848 88.142 44.1818C89.3693 43.3788 90.7633 42.7727 92.3239 42.3636C93.8996 41.9545 95.5511 41.6667 97.2784 41.5C99.3087 41.2879 100.945 41.0909 102.188 40.9091C103.43 40.7121 104.331 40.4242 104.892 40.0455C105.453 39.6667 105.733 39.1061 105.733 38.3636V38.2273C105.733 36.7879 105.278 35.6742 104.369 34.8864C103.475 34.0985 102.203 33.7045 100.551 33.7045C98.8087 33.7045 97.4223 34.0909 96.392 34.8636C95.3617 35.6212 94.6799 36.5758 94.3466 37.7273L85.392 37C85.8466 34.8788 86.7405 33.0455 88.0739 31.5C89.4072 29.9394 91.1269 28.7424 93.233 27.9091C95.3542 27.0606 97.8087 26.6364 100.597 26.6364C102.536 26.6364 104.392 26.8636 106.165 27.3182C107.953 27.7727 109.536 28.4773 110.915 29.4318C112.309 30.3864 113.407 31.6136 114.21 33.1136C115.013 34.5985 115.415 36.3788 115.415 38.4545V62H106.233V57.1591H105.96C105.4 58.25 104.65 59.2121 103.71 60.0455C102.771 60.8636 101.642 61.5076 100.324 61.9773C99.0057 62.4318 97.483 62.6591 95.7557 62.6591ZM98.5284 55.9773C99.9527 55.9773 101.21 55.697 102.301 55.1364C103.392 54.5606 104.248 53.7879 104.869 52.8182C105.491 51.8485 105.801 50.75 105.801 49.5227V45.8182C105.498 46.0152 105.081 46.197 104.551 46.3636C104.036 46.5152 103.453 46.6591 102.801 46.7955C102.15 46.9167 101.498 47.0303 100.847 47.1364C100.195 47.2273 99.6042 47.3106 99.0739 47.3864C97.9375 47.553 96.9451 47.8182 96.0966 48.1818C95.2481 48.5455 94.589 49.0379 94.1193 49.6591C93.6496 50.2652 93.4148 51.0227 93.4148 51.9318C93.4148 53.25 93.892 54.2576 94.8466 54.9545C95.8163 55.6364 97.0436 55.9773 98.5284 55.9773ZM132.608 15.4545V62H122.926V15.4545H132.608Z" fill="white" fill-opacity="0.8"/>
<path d="M235 14L217 62H202L220.529 14H235Z" fill="#3B5BFF"/>
<g filter="url(#filter0_d_614_1559)">
<path d="M184 14L202 62H217L199 14H184Z" fill="#3B5BFF"/>
</g>
<rect x="155" y="14" width="24" height="12" fill="#3B5BFF"/>
<rect x="155" y="50" width="24" height="12" fill="#3B5BFF"/>
<g filter="url(#filter1_d_614_1559)">
<path d="M143 26L155 14V62L143 50V26Z" fill="#3B5BFF"/>
</g>
<defs>
<filter id="filter0_d_614_1559" x="182" y="10" width="41" height="56" filterUnits="userSpaceOnUse" color-interpolation-filters="sRGB">
<feFlood flood-opacity="0" result="BackgroundImageFix"/>
<feColorMatrix in="SourceAlpha" type="matrix" values="0 0 0 0 0 0 0 0 0 0 0 0 0 0 0 0 0 0 127 0" result="hardAlpha"/>
<feOffset dx="2"/>
<feGaussianBlur stdDeviation="2"/>
<feComposite in2="hardAlpha" operator="out"/>
<feColorMatrix type="matrix" values="0 0 0 0 0 0 0 0 0 0 0 0 0 0 0 0 0 0 0.25 0"/>
<feBlend mode="normal" in2="BackgroundImageFix" result="effect1_dropShadow_614_1559"/>
<feBlend mode="normal" in="SourceGraphic" in2="effect1_dropShadow_614_1559" result="shape"/>
</filter>
<filter id="filter1_d_614_1559" x="141" y="10" width="20" height="56" filterUnits="userSpaceOnUse" color-interpolation-filters="sRGB">
<feFlood flood-opacity="0" result="BackgroundImageFix"/>
<feColorMatrix in="SourceAlpha" type="matrix" values="0 0 0 0 0 0 0 0 0 0 0 0 0 0 0 0 0 0 127 0" result="hardAlpha"/>
<feOffset dx="2"/>
<feGaussianBlur stdDeviation="2"/>
<feComposite in2="hardAlpha" operator="out"/>
<feColorMatrix type="matrix" values="0 0 0 0 0 0 0 0 0 0 0 0 0 0 0 0 0 0 0.25 0"/>
<feBlend mode="normal" in2="BackgroundImageFix" result="effect1_dropShadow_614_1559"/>
<feBlend mode="normal" in="SourceGraphic" in2="effect1_dropShadow_614_1559" result="shape"/>
</filter>
</defs>
</svg>
