<svg width="254" height="241" viewBox="0 0 254 241" fill="none" xmlns="http://www.w3.org/2000/svg">
<rect x="84" y="34" width="102" height="24" rx="4" fill="#CDF7E2"/>
<rect x="16" y="16" width="236" height="223" rx="22" stroke="white" stroke-opacity="0.2" stroke-width="4"/>
<path d="M87.9741 104.239C86.8491 104.239 85.8462 104.045 84.9656 103.659C84.0906 103.273 83.3945 102.736 82.8775 102.048C82.3661 101.355 82.0877 100.551 82.0423 99.6364H84.19C84.2354 100.199 84.4286 100.685 84.7695 101.094C85.1104 101.497 85.5565 101.81 86.1076 102.031C86.6587 102.253 87.2695 102.364 87.94 102.364C88.69 102.364 89.3548 102.233 89.9343 101.972C90.5138 101.71 90.9684 101.347 91.2979 100.881C91.6275 100.415 91.7923 99.875 91.7923 99.2614C91.7923 98.6193 91.6332 98.054 91.315 97.5653C90.9968 97.071 90.5309 96.6847 89.9173 96.4062C89.3036 96.1278 88.5536 95.9886 87.6673 95.9886H86.2695V94.1136H87.6673C88.3604 94.1136 88.9684 93.9886 89.4911 93.7386C90.0195 93.4886 90.4315 93.1364 90.7269 92.6818C91.0281 92.2273 91.1786 91.6932 91.1786 91.0795C91.1786 90.4886 91.0479 89.9744 90.7866 89.5369C90.5252 89.0994 90.1559 88.7585 89.6786 88.5142C89.207 88.2699 88.6502 88.1477 88.0082 88.1477C87.4059 88.1477 86.8377 88.2585 86.3036 88.4801C85.7752 88.696 85.3434 89.0114 85.0082 89.4261C84.6729 89.8352 84.4911 90.3295 84.4627 90.9091H82.4173C82.4513 89.9943 82.7269 89.1932 83.244 88.5057C83.761 87.8125 84.4371 87.2727 85.2724 86.8864C86.1133 86.5 87.0366 86.3068 88.0423 86.3068C89.1218 86.3068 90.0479 86.5256 90.8207 86.9631C91.5934 87.3949 92.1871 87.9659 92.6019 88.6761C93.0167 89.3864 93.2241 90.1534 93.2241 90.9773C93.2241 91.9602 92.9656 92.7983 92.4485 93.4915C91.9371 94.1847 91.2411 94.6648 90.3604 94.9318V95.0682C91.4627 95.25 92.3235 95.7187 92.9428 96.4744C93.5621 97.2244 93.8718 98.1534 93.8718 99.2614C93.8718 100.21 93.6133 101.062 93.0962 101.818C92.5849 102.568 91.886 103.159 90.9996 103.591C90.1133 104.023 89.1048 104.239 87.9741 104.239ZM104.414 86.5455H106.937L112.869 101.034H113.074L119.005 86.5455H121.528V104H119.551V90.7386H119.38L113.926 104H112.017L106.562 90.7386H106.392V104H104.414V86.5455ZM130.811 104.273C129.63 104.273 128.593 103.991 127.701 103.429C126.814 102.866 126.121 102.08 125.621 101.068C125.127 100.057 124.88 98.875 124.88 97.5227C124.88 96.1591 125.127 94.9687 125.621 93.9517C126.121 92.9347 126.814 92.1449 127.701 91.5824C128.593 91.0199 129.63 90.7386 130.811 90.7386C131.993 90.7386 133.027 91.0199 133.914 91.5824C134.806 92.1449 135.499 92.9347 135.993 93.9517C136.493 94.9687 136.743 96.1591 136.743 97.5227C136.743 98.875 136.493 100.057 135.993 101.068C135.499 102.08 134.806 102.866 133.914 103.429C133.027 103.991 131.993 104.273 130.811 104.273ZM130.811 102.466C131.709 102.466 132.448 102.236 133.027 101.776C133.607 101.315 134.036 100.71 134.314 99.9602C134.593 99.2102 134.732 98.3977 134.732 97.5227C134.732 96.6477 134.593 95.8324 134.314 95.0767C134.036 94.321 133.607 93.7102 133.027 93.2443C132.448 92.7784 131.709 92.5455 130.811 92.5455C129.914 92.5455 129.175 92.7784 128.596 93.2443C128.016 93.7102 127.587 94.321 127.309 95.0767C127.03 95.8324 126.891 96.6477 126.891 97.5227C126.891 98.3977 127.03 99.2102 127.309 99.9602C127.587 100.71 128.016 101.315 128.596 101.776C129.175 102.236 129.914 102.466 130.811 102.466ZM141.825 96.125V104H139.814V90.9091H141.757V92.9545H141.927C142.234 92.2898 142.7 91.7557 143.325 91.3523C143.95 90.9432 144.757 90.7386 145.745 90.7386C146.632 90.7386 147.407 90.9205 148.072 91.2841C148.737 91.642 149.254 92.1875 149.623 92.9205C149.993 93.6477 150.177 94.5682 150.177 95.6818V104H148.166V95.8182C148.166 94.7898 147.899 93.9886 147.365 93.4148C146.831 92.8352 146.098 92.5455 145.166 92.5455C144.524 92.5455 143.95 92.6847 143.444 92.9631C142.944 93.2415 142.549 93.6477 142.26 94.1818C141.97 94.7159 141.825 95.3636 141.825 96.125ZM159.546 90.9091V92.6136H152.762V90.9091H159.546ZM154.739 87.7727H156.75V100.25C156.75 100.818 156.833 101.244 156.998 101.528C157.168 101.807 157.384 101.994 157.645 102.091C157.912 102.182 158.194 102.227 158.489 102.227C158.711 102.227 158.892 102.216 159.034 102.193C159.176 102.165 159.29 102.142 159.375 102.125L159.784 103.932C159.648 103.983 159.458 104.034 159.213 104.085C158.969 104.142 158.659 104.17 158.284 104.17C157.716 104.17 157.159 104.048 156.614 103.804C156.074 103.56 155.625 103.188 155.267 102.688C154.915 102.188 154.739 101.557 154.739 100.795V87.7727ZM164.864 96.125V104H162.853V86.5455H164.864V92.9545H165.034C165.341 92.2784 165.801 91.7415 166.415 91.3438C167.034 90.9403 167.858 90.7386 168.887 90.7386C169.779 90.7386 170.56 90.9176 171.23 91.2756C171.901 91.6278 172.421 92.1705 172.79 92.9034C173.165 93.6307 173.353 94.5568 173.353 95.6818V104H171.341V95.8182C171.341 94.7784 171.071 93.9744 170.532 93.4062C169.998 92.8324 169.256 92.5455 168.307 92.5455C167.648 92.5455 167.057 92.6847 166.534 92.9631C166.017 93.2415 165.608 93.6477 165.307 94.1818C165.012 94.7159 164.864 95.3636 164.864 96.125ZM186.305 93.8409L184.498 94.3523C184.385 94.0511 184.217 93.7585 183.995 93.4744C183.779 93.1847 183.484 92.946 183.109 92.7585C182.734 92.571 182.254 92.4773 181.669 92.4773C180.868 92.4773 180.2 92.6619 179.666 93.0312C179.137 93.3949 178.873 93.858 178.873 94.4205C178.873 94.9205 179.055 95.3153 179.419 95.6051C179.782 95.8949 180.35 96.1364 181.123 96.3295L183.066 96.8068C184.237 97.0909 185.109 97.5256 185.683 98.1108C186.257 98.6903 186.544 99.4375 186.544 100.352C186.544 101.102 186.328 101.773 185.896 102.364C185.47 102.955 184.873 103.42 184.106 103.761C183.339 104.102 182.447 104.273 181.43 104.273C180.095 104.273 178.99 103.983 178.115 103.403C177.24 102.824 176.686 101.977 176.453 100.864L178.362 100.386C178.544 101.091 178.887 101.619 179.393 101.972C179.904 102.324 180.572 102.5 181.396 102.5C182.333 102.5 183.078 102.301 183.629 101.903C184.186 101.5 184.464 101.017 184.464 100.455C184.464 100 184.305 99.6193 183.987 99.3125C183.669 99 183.18 98.767 182.521 98.6136L180.339 98.1023C179.14 97.8182 178.26 97.3778 177.697 96.7812C177.14 96.179 176.862 95.4261 176.862 94.5227C176.862 93.7841 177.069 93.1307 177.484 92.5625C177.904 91.9943 178.475 91.5483 179.197 91.2244C179.924 90.9006 180.748 90.7386 181.669 90.7386C182.964 90.7386 183.981 91.0227 184.72 91.5909C185.464 92.1591 185.993 92.9091 186.305 93.8409Z" fill="white" fill-opacity="0.8"/>
<path d="M116.703 135.739L116.106 137.844H104.933L105.529 135.739H116.703ZM111.265 149L105.163 141.594L105.146 139.932H108.172C108.927 139.932 109.566 139.815 110.089 139.582C110.612 139.349 111.01 139.011 111.282 138.568C111.555 138.119 111.691 137.574 111.691 136.932C111.691 135.977 111.407 135.219 110.839 134.656C110.271 134.094 109.382 133.812 108.172 133.812H104.933L105.555 131.545H108.172C109.581 131.545 110.743 131.77 111.657 132.219C112.572 132.668 113.254 133.29 113.703 134.085C114.152 134.881 114.376 135.798 114.376 136.838C114.376 137.764 114.191 138.602 113.822 139.352C113.453 140.102 112.865 140.713 112.058 141.185C111.251 141.656 110.191 141.932 108.879 142.011L108.802 142.028L114.376 148.855V149H111.265ZM116.711 131.545L116.106 133.668L107.174 133.616L107.779 131.545H116.711ZM124.85 149.239C123.782 149.239 122.822 149.034 121.97 148.625C121.123 148.21 120.447 147.642 119.941 146.92C119.436 146.199 119.166 145.375 119.132 144.449H121.689C121.751 145.199 122.083 145.815 122.686 146.298C123.288 146.781 124.01 147.023 124.85 147.023C125.521 147.023 126.115 146.869 126.632 146.562C127.154 146.25 127.564 145.821 127.859 145.276C128.16 144.73 128.311 144.108 128.311 143.409C128.311 142.699 128.157 142.065 127.85 141.509C127.544 140.952 127.12 140.514 126.581 140.196C126.047 139.878 125.433 139.716 124.74 139.71C124.211 139.71 123.68 139.801 123.146 139.983C122.612 140.165 122.18 140.403 121.85 140.699L119.439 140.341L120.419 131.545H130.015V133.804H122.609L122.055 138.688H122.157C122.498 138.358 122.95 138.082 123.512 137.861C124.081 137.639 124.689 137.528 125.336 137.528C126.399 137.528 127.345 137.781 128.174 138.287C129.01 138.793 129.666 139.483 130.143 140.358C130.626 141.227 130.865 142.227 130.859 143.358C130.865 144.489 130.609 145.497 130.092 146.384C129.581 147.27 128.87 147.969 127.961 148.48C127.058 148.986 126.021 149.239 124.85 149.239ZM139.776 131.307C140.554 131.312 141.321 131.455 142.077 131.733C142.833 132.011 143.515 132.466 144.123 133.097C144.736 133.727 145.225 134.58 145.588 135.653C145.958 136.722 146.145 138.051 146.151 139.642C146.151 141.17 145.998 142.531 145.691 143.724C145.384 144.912 144.944 145.915 144.37 146.733C143.801 147.551 143.111 148.173 142.299 148.599C141.486 149.026 140.571 149.239 139.554 149.239C138.515 149.239 137.591 149.034 136.784 148.625C135.978 148.216 135.321 147.651 134.816 146.929C134.31 146.202 133.995 145.366 133.87 144.423H136.469C136.64 145.173 136.986 145.781 137.509 146.247C138.037 146.707 138.719 146.938 139.554 146.938C140.833 146.938 141.83 146.381 142.546 145.267C143.262 144.148 143.623 142.585 143.628 140.58H143.492C143.196 141.068 142.827 141.489 142.384 141.841C141.946 142.193 141.455 142.466 140.909 142.659C140.364 142.852 139.782 142.949 139.162 142.949C138.157 142.949 137.242 142.702 136.418 142.207C135.594 141.713 134.938 141.034 134.449 140.17C133.961 139.307 133.716 138.321 133.716 137.213C133.716 136.111 133.966 135.111 134.466 134.213C134.972 133.315 135.676 132.605 136.58 132.082C137.489 131.554 138.554 131.295 139.776 131.307ZM139.784 133.523C139.12 133.523 138.52 133.687 137.986 134.017C137.458 134.341 137.04 134.781 136.733 135.338C136.426 135.889 136.273 136.503 136.273 137.179C136.273 137.855 136.421 138.469 136.716 139.02C137.017 139.565 137.426 140 137.944 140.324C138.466 140.642 139.063 140.801 139.733 140.801C140.233 140.801 140.699 140.705 141.131 140.511C141.563 140.318 141.941 140.051 142.265 139.71C142.588 139.364 142.841 138.972 143.023 138.534C143.205 138.097 143.296 137.636 143.296 137.153C143.296 136.511 143.142 135.915 142.836 135.364C142.534 134.812 142.12 134.369 141.591 134.034C141.063 133.693 140.461 133.523 139.784 133.523ZM155.034 131.307C155.812 131.312 156.579 131.455 157.335 131.733C158.091 132.011 158.772 132.466 159.38 133.097C159.994 133.727 160.483 134.58 160.846 135.653C161.216 136.722 161.403 138.051 161.409 139.642C161.409 141.17 161.255 142.531 160.949 143.724C160.642 144.912 160.201 145.915 159.627 146.733C159.059 147.551 158.369 148.173 157.556 148.599C156.744 149.026 155.829 149.239 154.812 149.239C153.772 149.239 152.849 149.034 152.042 148.625C151.235 148.216 150.579 147.651 150.074 146.929C149.568 146.202 149.252 145.366 149.127 144.423H151.727C151.897 145.173 152.244 145.781 152.767 146.247C153.295 146.707 153.977 146.938 154.812 146.938C156.091 146.938 157.088 146.381 157.804 145.267C158.52 144.148 158.88 142.585 158.886 140.58H158.75C158.454 141.068 158.085 141.489 157.642 141.841C157.204 142.193 156.713 142.466 156.167 142.659C155.622 142.852 155.039 142.949 154.42 142.949C153.414 142.949 152.5 142.702 151.676 142.207C150.852 141.713 150.196 141.034 149.707 140.17C149.218 139.307 148.974 138.321 148.974 137.213C148.974 136.111 149.224 135.111 149.724 134.213C150.23 133.315 150.934 132.605 151.838 132.082C152.747 131.554 153.812 131.295 155.034 131.307ZM155.042 133.523C154.377 133.523 153.778 133.687 153.244 134.017C152.716 134.341 152.298 134.781 151.991 135.338C151.684 135.889 151.531 136.503 151.531 137.179C151.531 137.855 151.679 138.469 151.974 139.02C152.275 139.565 152.684 140 153.201 140.324C153.724 140.642 154.321 140.801 154.991 140.801C155.491 140.801 155.957 140.705 156.389 140.511C156.821 140.318 157.199 140.051 157.522 139.71C157.846 139.364 158.099 138.972 158.281 138.534C158.463 138.097 158.554 137.636 158.554 137.153C158.554 136.511 158.4 135.915 158.093 135.364C157.792 134.812 157.377 134.369 156.849 134.034C156.321 133.693 155.718 133.523 155.042 133.523Z" fill="white" fill-opacity="0.9"/>
<path d="M104.191 141.142H162.806V142.778H104.191V141.142Z" fill="white" fill-opacity="0.9"/>
<path d="M103.953 180.239L102.902 184.401H83.6264L84.6776 180.239H103.953ZM93.6406 202L84.152 190.821L84.1804 186.886H88.8537C89.8385 186.886 90.6482 186.688 91.2827 186.29C91.9266 185.883 92.4048 185.352 92.7173 184.699C93.0393 184.045 93.205 183.335 93.2145 182.568C93.205 181.403 92.8688 180.438 92.206 179.67C91.5526 178.894 90.4351 178.506 88.8537 178.506H83.6264L84.8622 172.909H88.8537C91.3063 172.909 93.3613 173.264 95.0185 173.974C96.6757 174.685 97.9257 175.712 98.7685 177.057C99.6113 178.402 100.037 180.026 100.047 181.929C100.037 183.605 99.7817 185.049 99.2798 186.261C98.7874 187.473 98.0204 188.491 96.9787 189.315C95.9465 190.139 94.6065 190.816 92.9588 191.347L92.6889 191.46L101.07 201.73V202H93.6406ZM103.996 172.909L102.902 177.156L86.8224 177.185L87.9162 172.909H103.996ZM107.266 197.17V191.688L119.184 172.909H124.056V180.352H121.229L114.255 191.403V191.631H131.513V197.17H107.266ZM121.315 202V195.494L121.457 193.094V172.909H128.033V202H121.315ZM135.2 202V196.943L145.81 187.653C146.606 186.934 147.283 186.276 147.842 185.679C148.4 185.073 148.826 184.467 149.12 183.861C149.414 183.245 149.56 182.578 149.56 181.858C149.56 181.053 149.385 180.366 149.035 179.798C148.684 179.221 148.201 178.776 147.586 178.463C146.97 178.151 146.265 177.994 145.469 177.994C144.665 177.994 143.959 178.16 143.353 178.491C142.747 178.813 142.273 179.282 141.933 179.898C141.601 180.513 141.435 181.261 141.435 182.142H134.773C134.773 180.163 135.219 178.454 136.109 177.014C136.999 175.575 138.249 174.467 139.859 173.69C141.478 172.904 143.358 172.511 145.498 172.511C147.704 172.511 149.622 172.881 151.251 173.619C152.879 174.358 154.139 175.39 155.029 176.716C155.929 178.032 156.379 179.562 156.379 181.304C156.379 182.412 156.156 183.51 155.711 184.599C155.266 185.688 154.466 186.891 153.31 188.207C152.165 189.524 150.536 191.1 148.424 192.938L144.944 196.148V196.332H156.734V202H135.2ZM172.739 202.71C170.201 202.71 168.013 202.109 166.176 200.906C164.339 199.694 162.923 197.956 161.929 195.693C160.935 193.42 160.442 190.688 160.452 187.497C160.461 184.306 160.958 181.598 161.943 179.372C162.938 177.137 164.348 175.437 166.176 174.273C168.013 173.098 170.201 172.511 172.739 172.511C175.277 172.511 177.464 173.098 179.301 174.273C181.148 175.437 182.568 177.137 183.562 179.372C184.557 181.607 185.049 184.315 185.04 187.497C185.04 190.698 184.543 193.435 183.548 195.707C182.554 197.98 181.138 199.718 179.301 200.92C177.473 202.114 175.286 202.71 172.739 202.71ZM172.739 196.957C174.254 196.957 175.48 196.186 176.418 194.642C177.355 193.089 177.819 190.707 177.81 187.497C177.81 185.395 177.597 183.662 177.17 182.298C176.744 180.925 176.152 179.902 175.395 179.23C174.637 178.558 173.752 178.222 172.739 178.222C171.233 178.222 170.016 178.984 169.088 180.509C168.16 182.024 167.691 184.353 167.682 187.497C167.672 189.628 167.876 191.394 168.293 192.795C168.719 194.197 169.315 195.243 170.082 195.935C170.849 196.616 171.735 196.957 172.739 196.957Z" fill="white" fill-opacity="0.9"/>
<path d="M118.445 41.8182L121.094 49.8324H121.199L123.844 41.8182H125.872L122.283 52H120.006L116.421 41.8182H118.445ZM128.538 52.1541C128.054 52.1541 127.618 52.0679 127.231 51.8956C126.846 51.7199 126.541 51.4614 126.316 51.12C126.094 50.7786 125.983 50.3577 125.983 49.8572C125.983 49.4264 126.062 49.0701 126.221 48.7884C126.381 48.5066 126.598 48.2812 126.873 48.1122C127.148 47.9432 127.458 47.8156 127.802 47.7294C128.15 47.6399 128.51 47.5753 128.881 47.5355C129.329 47.4891 129.692 47.4477 129.97 47.4112C130.248 47.3714 130.451 47.3118 130.577 47.2322C130.706 47.1494 130.77 47.0218 130.77 46.8494V46.8196C130.77 46.4451 130.659 46.1551 130.437 45.9496C130.215 45.7441 129.895 45.6413 129.478 45.6413C129.037 45.6413 128.687 45.7375 128.429 45.9297C128.174 46.1219 128.001 46.349 127.912 46.6108L126.231 46.3722C126.364 45.9081 126.583 45.5204 126.888 45.2088C127.193 44.8939 127.565 44.6586 128.006 44.5028C128.447 44.3438 128.934 44.2642 129.468 44.2642C129.836 44.2642 130.202 44.3073 130.567 44.3935C130.931 44.4796 131.264 44.6222 131.566 44.821C131.867 45.0166 132.109 45.2834 132.292 45.6214C132.477 45.9595 132.57 46.3821 132.57 46.8892V52H130.84V50.951H130.78C130.671 51.1631 130.517 51.362 130.318 51.5476C130.122 51.7299 129.876 51.8774 129.577 51.9901C129.282 52.0994 128.936 52.1541 128.538 52.1541ZM129.006 50.8317C129.367 50.8317 129.68 50.7604 129.945 50.6179C130.21 50.4721 130.414 50.2798 130.557 50.0412C130.702 49.8026 130.775 49.5424 130.775 49.2607V48.3608C130.719 48.4072 130.623 48.4503 130.487 48.4901C130.354 48.5298 130.205 48.5646 130.04 48.5945C129.874 48.6243 129.71 48.6508 129.547 48.674C129.385 48.6972 129.244 48.7171 129.125 48.7337C128.856 48.7701 128.616 48.8298 128.404 48.9126C128.192 48.9955 128.024 49.1115 127.902 49.2607C127.779 49.4065 127.718 49.5954 127.718 49.8274C127.718 50.1589 127.839 50.4091 128.081 50.5781C128.323 50.7472 128.631 50.8317 129.006 50.8317ZM136.18 41.8182V52H134.38V41.8182H136.18ZM142.897 48.7884V44.3636H144.697V52H142.952V50.6428H142.873C142.7 51.0703 142.417 51.42 142.022 51.6918C141.631 51.9635 141.149 52.0994 140.576 52.0994C140.075 52.0994 139.633 51.9884 139.248 51.7663C138.867 51.541 138.569 51.2145 138.353 50.7869C138.138 50.3561 138.03 49.8357 138.03 49.2259V44.3636H139.83V48.9474C139.83 49.4313 139.962 49.8158 140.228 50.1009C140.493 50.3859 140.841 50.5284 141.272 50.5284C141.537 50.5284 141.794 50.4638 142.042 50.3345C142.291 50.2053 142.495 50.013 142.654 49.7578C142.816 49.4993 142.897 49.1761 142.897 48.7884ZM149.928 52.1491C149.163 52.1491 148.502 51.9901 147.945 51.6719C147.391 51.3504 146.965 50.8963 146.667 50.3097C146.369 49.7197 146.22 49.0253 146.22 48.2266C146.22 47.4411 146.369 46.7517 146.667 46.1584C146.969 45.5618 147.39 45.0978 147.93 44.7663C148.47 44.4316 149.105 44.2642 149.834 44.2642C150.305 44.2642 150.749 44.3404 151.166 44.4929C151.587 44.642 151.959 44.8741 152.28 45.1889C152.605 45.5038 152.86 45.9048 153.046 46.392C153.231 46.8759 153.324 47.4527 153.324 48.1222V48.674H147.065V47.4609H151.599C151.596 47.1162 151.521 46.8097 151.375 46.5412C151.229 46.2694 151.026 46.0556 150.764 45.8999C150.505 45.7441 150.204 45.6662 149.859 45.6662C149.491 45.6662 149.168 45.7557 148.889 45.9347C148.611 46.1103 148.394 46.3423 148.238 46.6307C148.086 46.9157 148.008 47.2289 148.004 47.5703V48.6293C148.004 49.0734 148.086 49.4545 148.248 49.7727C148.41 50.0876 148.637 50.3295 148.929 50.4986C149.221 50.6643 149.562 50.7472 149.953 50.7472C150.215 50.7472 150.452 50.7107 150.664 50.6378C150.876 50.5616 151.06 50.4505 151.216 50.3047C151.372 50.1589 151.49 49.9782 151.569 49.7628L153.249 49.9517C153.143 50.3958 152.941 50.7836 152.643 51.1151C152.348 51.4432 151.97 51.6984 151.509 51.8807C151.049 52.0597 150.522 52.1491 149.928 52.1491Z" fill="#329D5D"/>
<path d="M14 51.5L51.5002 13.9998L78.5024 14.0012L14 78.5L14 51.5Z" fill="#0F8C30"/>
<path d="M28.881 59.3844C28.4169 59.8484 27.9236 60.1824 27.401 60.3863C26.8807 60.5879 26.3721 60.6535 25.8753 60.5832C25.3784 60.5082 24.932 60.2914 24.5359 59.9328L25.4218 59.0469C25.6725 59.2602 25.9526 59.3809 26.262 59.409C26.569 59.4348 26.8819 59.3797 27.2006 59.2438C27.5193 59.1079 27.817 58.9016 28.0935 58.6251C28.4029 58.3157 28.6232 57.9876 28.7544 57.6407C28.8857 57.2939 28.9232 56.9564 28.8669 56.6283C28.8107 56.3002 28.656 56.0096 28.4029 55.7565C28.138 55.4916 27.8392 55.3241 27.5064 55.2538C27.1713 55.1811 26.8198 55.2139 26.4518 55.3522C26.0839 55.4905 25.7171 55.7424 25.3515 56.108L24.7749 56.6845L24.0015 55.9111L24.5781 55.3346C24.864 55.0487 25.0632 54.7464 25.1757 54.4276C25.2905 54.1065 25.3151 53.7913 25.2495 53.482C25.1862 53.1703 25.0281 52.8879 24.7749 52.6347C24.5312 52.391 24.2652 52.2328 23.9769 52.1602C23.6887 52.0875 23.3957 52.0992 23.0981 52.1953C22.8028 52.2891 22.5227 52.4684 22.2579 52.7332C22.0095 52.9816 21.8208 53.2617 21.6919 53.5734C21.563 53.8804 21.5149 54.1886 21.5478 54.4979C21.5782 54.805 21.7071 55.0838 21.9345 55.3346L21.0908 56.1783C20.7275 55.7869 20.5107 55.3428 20.4404 54.846C20.3677 54.3468 20.424 53.8452 20.6091 53.3414C20.7966 52.8351 21.0978 52.3746 21.5126 51.9598C21.9579 51.5145 22.4301 51.2227 22.9293 51.0844C23.4262 50.9438 23.9066 50.9344 24.3707 51.0563C24.8347 51.1782 25.2366 51.409 25.5765 51.7489C25.9819 52.1543 26.221 52.6066 26.2936 53.1058C26.3686 53.6027 26.2795 54.0878 26.0264 54.5612L26.0827 54.6175C26.6123 54.2378 27.1608 54.0761 27.7279 54.1323C28.2927 54.1862 28.8036 54.4417 29.2606 54.8987C29.652 55.2901 29.8969 55.7483 29.9954 56.2732C30.0938 56.7935 30.0493 57.3255 29.8618 57.8692C29.6743 58.413 29.3474 58.918 28.881 59.3844ZM35.0998 53.1656C34.5701 53.6952 33.9749 54.0023 33.314 54.0866C32.6507 54.1687 31.9453 54.0327 31.1977 53.6788C30.4477 53.3226 29.6813 52.7531 28.8986 51.9703C28.1205 51.1922 27.5545 50.4294 27.2006 49.6818C26.8467 48.9295 26.7108 48.2217 26.7928 47.5584C26.8748 46.8905 27.1783 46.2941 27.7033 45.7691C28.2283 45.2441 28.8236 44.9418 29.4891 44.8621C30.1547 44.7777 30.8625 44.9137 31.6125 45.2699C32.3624 45.6214 33.1265 46.1862 33.9045 46.9643C34.6873 47.7471 35.2568 48.5135 35.6131 49.2634C35.9669 50.0111 36.1029 50.7165 36.0208 51.3797C35.9365 52.0406 35.6295 52.6359 35.0998 53.1656ZM34.3264 52.3922C34.8514 51.8672 35.0061 51.2063 34.7904 50.4095C34.5748 49.6126 33.9983 48.7455 33.0608 47.808C32.4374 47.1846 31.8398 46.7206 31.268 46.4159C30.6985 46.1089 30.1747 45.9648 29.6966 45.9835C29.2208 45.9999 28.8095 46.1816 28.4626 46.5284C27.9424 47.0487 27.7924 47.712 28.0127 48.5182C28.2306 49.322 28.8072 50.1915 29.7423 51.1266C30.3657 51.75 30.961 52.2141 31.5281 52.5187C32.0953 52.8234 32.6156 52.9664 33.089 52.9476C33.5647 52.9265 33.9772 52.7414 34.3264 52.3922ZM41.1604 44.2082L40.7808 43.8286C40.5183 43.5661 40.332 43.2719 40.2218 42.9462C40.1117 42.6157 40.0952 42.2806 40.1726 41.9408C40.2499 41.5962 40.4386 41.274 40.7386 40.974C41.0432 40.6693 41.3655 40.4807 41.7053 40.408C42.0428 40.333 42.3744 40.353 42.7002 40.4678C43.0236 40.5803 43.3166 40.7678 43.5791 41.0303L43.9587 41.4099C44.2212 41.6724 44.4087 41.9677 44.5212 42.2958C44.6337 42.6192 44.6524 42.952 44.5774 43.2942C44.5024 43.6317 44.315 43.9504 44.015 44.2504C43.7103 44.5551 43.388 44.7461 43.0482 44.8234C42.7061 44.8984 42.3721 44.8808 42.0463 44.7707C41.7182 44.6582 41.4229 44.4707 41.1604 44.2082ZM41.4979 43.1114L41.8776 43.4911C42.0955 43.709 42.3428 43.8532 42.6193 43.9235C42.8935 43.9914 43.1572 43.8989 43.4103 43.6458C43.6564 43.3997 43.7443 43.1407 43.674 42.8688C43.6037 42.5923 43.4595 42.345 43.2416 42.1271L42.8619 41.7474C42.6439 41.5295 42.4002 41.3841 42.1307 41.3115C41.8588 41.2365 41.5963 41.3256 41.3432 41.5787C41.0972 41.8248 41.0069 42.0884 41.0725 42.3696C41.1382 42.6462 41.28 42.8934 41.4979 43.1114ZM33.4546 43.6739L33.0749 43.2942C32.8124 43.0317 32.6261 42.7376 32.5159 42.4118C32.4058 42.0814 32.3894 41.7462 32.4667 41.4064C32.5441 41.0619 32.7327 40.7397 33.0327 40.4397C33.3374 40.135 33.6596 39.9463 33.9995 39.8737C34.3369 39.7987 34.6686 39.8186 34.9943 39.9334C35.3178 40.0459 35.6107 40.2334 35.8732 40.4959L36.2529 40.8756C36.5154 41.1381 36.7028 41.4334 36.8153 41.7615C36.9278 42.0849 36.9466 42.4177 36.8716 42.7599C36.7966 43.0973 36.6091 43.4161 36.3091 43.7161C36.0044 44.0207 35.6822 44.2117 35.3424 44.2891C35.0002 44.3641 34.6662 44.3465 34.3405 44.2363C34.0124 44.1239 33.7171 43.9364 33.4546 43.6739ZM33.7921 42.5771L34.1717 42.9567C34.3897 43.1747 34.6369 43.3188 34.9135 43.3891C35.1877 43.4571 35.4513 43.3645 35.7045 43.1114C35.9505 42.8653 36.0384 42.6064 35.9681 42.3345C35.8978 42.0579 35.7537 41.8107 35.5357 41.5927L35.156 41.2131C34.9381 40.9951 34.6944 40.8498 34.4248 40.7772C34.153 40.7022 33.8905 40.7912 33.6374 41.0443C33.3913 41.2904 33.3011 41.5541 33.3667 41.8353C33.4323 42.1118 33.5741 42.3591 33.7921 42.5771ZM39.1918 48.8767L36.9419 36.7274L37.7434 35.9258L39.9933 48.0752L39.1918 48.8767ZM51.988 36.3055C51.5005 36.793 50.9568 37.1047 50.3568 37.2406C49.7592 37.3742 49.1487 37.3355 48.5253 37.1246C47.9042 36.9113 47.3148 36.5258 46.757 35.968C46.1945 35.4055 45.8055 34.8126 45.5899 34.1892C45.3766 33.5635 45.3368 32.9518 45.4704 32.3541C45.6063 31.7542 45.918 31.2104 46.4055 30.723C46.8929 30.2355 47.4355 29.925 48.0331 29.7914C48.6331 29.6554 49.2448 29.6953 49.8682 29.9109C50.4939 30.1242 51.088 30.512 51.6505 31.0745C52.2083 31.6323 52.5927 32.2229 52.8036 32.8463C53.0169 33.4674 53.0555 34.0779 52.9196 34.6778C52.786 35.2755 52.4755 35.818 51.988 36.3055ZM51.2427 35.5602C51.613 35.1899 51.8228 34.7903 51.872 34.3615C51.9212 33.9326 51.8486 33.506 51.654 33.0818C51.4595 32.6576 51.1818 32.2651 50.8209 31.9042C50.46 31.5432 50.0662 31.2644 49.6397 31.0675C49.2131 30.8706 48.7843 30.7956 48.353 30.8425C47.9218 30.8894 47.521 31.098 47.1507 31.4682C46.7805 31.8385 46.5719 32.2393 46.525 32.6705C46.4781 33.1018 46.5531 33.5306 46.75 33.9572C46.9469 34.3837 47.2257 34.7775 47.5867 35.1384C47.9476 35.4993 48.3401 35.777 48.7643 35.9715C49.1885 36.1661 49.6151 36.2387 50.044 36.1895C50.4728 36.1403 50.8724 35.9305 51.2427 35.5602ZM52.5935 24.6755L53.2966 25.3786L50.3858 28.2894L49.6827 27.5863L52.5935 24.6755ZM55.9543 32.1142L49.8093 25.9692C49.4999 25.6599 49.3148 25.3294 49.2539 24.9779C49.1929 24.6263 49.2269 24.283 49.3558 23.9478C49.4847 23.6127 49.6781 23.3162 49.9359 23.0584C50.1398 22.8545 50.3226 22.7045 50.4843 22.6084C50.646 22.5124 50.7725 22.4467 50.8639 22.4116L51.342 23.3678C51.2858 23.3959 51.2096 23.4369 51.1135 23.4908C51.0198 23.5424 50.9131 23.6279 50.7936 23.7474C50.5194 24.0217 50.3905 24.2888 50.4069 24.549C50.4257 24.8068 50.5686 25.0693 50.8358 25.3364L56.7839 31.2846L55.9543 32.1142ZM56.1608 21.1082L56.8639 21.8113L53.9531 24.7221L53.25 24.019L56.1608 21.1082ZM59.5216 28.5469L53.3766 22.4019C53.0672 22.0926 52.8821 21.7621 52.8212 21.4106C52.7602 21.059 52.7942 20.7157 52.9231 20.3805C53.052 20.0454 53.2454 19.7489 53.5032 19.4911C53.707 19.2872 53.8899 19.1372 54.0516 19.0411C54.2133 18.9451 54.3398 18.8794 54.4312 18.8443L54.9093 19.8005C54.8531 19.8286 54.7769 19.8696 54.6808 19.9235C54.5871 19.9751 54.4804 20.0606 54.3609 20.1802C54.0867 20.4544 53.9578 20.7215 53.9742 20.9817C53.993 21.2395 54.1359 21.502 54.4031 21.7691L60.3512 27.7173L59.5216 28.5469Z" fill="white"/>
</svg>
