<svg width="254" height="241" viewBox="0 0 254 241" fill="none" xmlns="http://www.w3.org/2000/svg">
<rect x="16" y="16" width="236" height="223" rx="22" fill="black" fill-opacity="0.4" stroke="#3B5BFF" stroke-width="4"/>
<rect x="82" y="34" width="102" height="24" rx="4" fill="#C8D0FC"/>
<path d="M94.0874 104.239C92.9624 104.239 91.9595 104.045 91.0788 103.659C90.2038 103.273 89.5078 102.736 88.9908 102.048C88.4794 101.355 88.201 100.551 88.1555 99.6364H90.3033C90.3487 100.199 90.5419 100.685 90.8828 101.094C91.2237 101.497 91.6697 101.81 92.2209 102.031C92.772 102.253 93.3828 102.364 94.0533 102.364C94.8033 102.364 95.468 102.233 96.0476 101.972C96.6271 101.71 97.0817 101.347 97.4112 100.881C97.7408 100.415 97.9055 99.875 97.9055 99.2614C97.9055 98.6193 97.7464 98.054 97.4283 97.5653C97.1101 97.071 96.6442 96.6847 96.0305 96.4062C95.4169 96.1278 94.6669 95.9886 93.7805 95.9886H92.3828V94.1136H93.7805C94.4737 94.1136 95.0817 93.9886 95.6044 93.7386C96.1328 93.4886 96.5447 93.1364 96.8402 92.6818C97.1413 92.2273 97.2919 91.6932 97.2919 91.0795C97.2919 90.4886 97.1612 89.9744 96.8999 89.5369C96.6385 89.0994 96.2692 88.7585 95.7919 88.5142C95.3203 88.2699 94.7635 88.1477 94.1214 88.1477C93.5192 88.1477 92.951 88.2585 92.4169 88.4801C91.8885 88.696 91.4567 89.0114 91.1214 89.4261C90.7862 89.8352 90.6044 90.3295 90.576 90.9091H88.5305C88.5646 89.9943 88.8402 89.1932 89.3572 88.5057C89.8743 87.8125 90.5504 87.2727 91.3857 86.8864C92.2266 86.5 93.1499 86.3068 94.1555 86.3068C95.2351 86.3068 96.1612 86.5256 96.9339 86.9631C97.7067 87.3949 98.3004 87.9659 98.7152 88.6761C99.13 89.3864 99.3374 90.1534 99.3374 90.9773C99.3374 91.9602 99.0788 92.7983 98.5618 93.4915C98.0504 94.1847 97.3544 94.6648 96.4737 94.9318V95.0682C97.576 95.25 98.4368 95.7187 99.0561 96.4744C99.6754 97.2244 99.9851 98.1534 99.9851 99.2614C99.9851 100.21 99.7266 101.062 99.2095 101.818C98.6982 102.568 97.9993 103.159 97.1129 103.591C96.2266 104.023 95.218 104.239 94.0874 104.239ZM109.164 104.239C107.88 104.239 106.786 103.889 105.883 103.19C104.979 102.486 104.289 101.466 103.812 100.131C103.335 98.7898 103.096 97.1705 103.096 95.2727C103.096 93.3864 103.335 91.7756 103.812 90.4403C104.295 89.0994 104.988 88.0767 105.891 87.3722C106.8 86.6619 107.891 86.3068 109.164 86.3068C110.437 86.3068 111.525 86.6619 112.428 87.3722C113.337 88.0767 114.031 89.0994 114.508 90.4403C114.991 91.7756 115.232 93.3864 115.232 95.2727C115.232 97.1705 114.994 98.7898 114.516 100.131C114.039 101.466 113.349 102.486 112.445 103.19C111.542 103.889 110.448 104.239 109.164 104.239ZM109.164 102.364C110.437 102.364 111.425 101.75 112.13 100.523C112.835 99.2955 113.187 97.5455 113.187 95.2727C113.187 93.7614 113.025 92.4744 112.701 91.4119C112.383 90.3494 111.923 89.5398 111.32 88.983C110.724 88.4261 110.005 88.1477 109.164 88.1477C107.903 88.1477 106.917 88.7699 106.207 90.0142C105.496 91.2528 105.141 93.0057 105.141 95.2727C105.141 96.7841 105.3 98.0682 105.619 99.125C105.937 100.182 106.394 100.986 106.991 101.537C107.593 102.088 108.317 102.364 109.164 102.364ZM130.914 104H125.528V86.5455H131.153C132.846 86.5455 134.295 86.8949 135.499 87.5938C136.704 88.2869 137.627 89.2841 138.269 90.5852C138.911 91.8807 139.232 93.4318 139.232 95.2386C139.232 97.0568 138.908 98.6222 138.261 99.9347C137.613 101.241 136.67 102.247 135.431 102.952C134.192 103.651 132.687 104 130.914 104ZM127.641 102.125H130.778C132.221 102.125 133.417 101.847 134.366 101.29C135.315 100.733 136.022 99.9403 136.488 98.9119C136.954 97.8835 137.187 96.6591 137.187 95.2386C137.187 93.8295 136.957 92.6165 136.496 91.5994C136.036 90.5767 135.349 89.7926 134.434 89.2472C133.519 88.696 132.38 88.4205 131.016 88.4205H127.641V102.125ZM146.357 104.307C145.528 104.307 144.775 104.151 144.099 103.838C143.423 103.52 142.886 103.062 142.488 102.466C142.09 101.864 141.891 101.136 141.891 100.284C141.891 99.5341 142.039 98.9261 142.335 98.4602C142.63 97.9886 143.025 97.6193 143.519 97.3523C144.013 97.0852 144.559 96.8864 145.156 96.7557C145.758 96.6193 146.363 96.5114 146.971 96.4318C147.766 96.3295 148.411 96.2528 148.906 96.2017C149.406 96.1449 149.769 96.0511 149.996 95.9205C150.229 95.7898 150.346 95.5625 150.346 95.2386V95.1705C150.346 94.3295 150.116 93.6761 149.656 93.2102C149.201 92.7443 148.511 92.5114 147.585 92.5114C146.624 92.5114 145.871 92.7216 145.326 93.142C144.781 93.5625 144.397 94.0114 144.175 94.4886L142.266 93.8068C142.607 93.0114 143.062 92.392 143.63 91.9489C144.204 91.5 144.829 91.1875 145.505 91.0114C146.187 90.8295 146.857 90.7386 147.516 90.7386C147.937 90.7386 148.42 90.7898 148.965 90.892C149.516 90.9886 150.048 91.1903 150.559 91.4972C151.076 91.804 151.505 92.267 151.846 92.8864C152.187 93.5057 152.357 94.3352 152.357 95.375V104H150.346V102.227H150.244C150.107 102.511 149.88 102.815 149.562 103.139C149.244 103.463 148.82 103.739 148.292 103.966C147.763 104.193 147.119 104.307 146.357 104.307ZM146.664 102.5C147.46 102.5 148.13 102.344 148.675 102.031C149.227 101.719 149.641 101.315 149.92 100.821C150.204 100.327 150.346 99.8068 150.346 99.2614V97.4205C150.261 97.5227 150.073 97.6165 149.783 97.7017C149.499 97.7812 149.17 97.8523 148.795 97.9148C148.425 97.9716 148.065 98.0227 147.712 98.0682C147.366 98.108 147.085 98.142 146.869 98.1705C146.346 98.2386 145.857 98.3494 145.403 98.5028C144.954 98.6506 144.59 98.875 144.312 99.1761C144.039 99.4716 143.903 99.875 143.903 100.386C143.903 101.085 144.161 101.614 144.678 101.972C145.201 102.324 145.863 102.5 146.664 102.5ZM156.855 108.909C156.514 108.909 156.21 108.881 155.943 108.824C155.676 108.773 155.491 108.722 155.389 108.67L155.901 106.898C156.389 107.023 156.821 107.068 157.196 107.034C157.571 107 157.903 106.832 158.193 106.531C158.489 106.236 158.759 105.756 159.003 105.091L159.378 104.068L154.537 90.9091H156.719L160.332 101.341H160.469L164.082 90.9091H166.264L160.707 105.909C160.457 106.585 160.148 107.145 159.778 107.588C159.409 108.037 158.98 108.369 158.491 108.585C158.009 108.801 157.463 108.909 156.855 108.909ZM178.192 93.8409L176.385 94.3523C176.271 94.0511 176.104 93.7585 175.882 93.4744C175.666 93.1847 175.371 92.946 174.996 92.7585C174.621 92.571 174.141 92.4773 173.555 92.4773C172.754 92.4773 172.087 92.6619 171.553 93.0312C171.024 93.3949 170.76 93.858 170.76 94.4205C170.76 94.9205 170.942 95.3153 171.305 95.6051C171.669 95.8949 172.237 96.1364 173.01 96.3295L174.953 96.8068C176.124 97.0909 176.996 97.5256 177.57 98.1108C178.143 98.6903 178.43 99.4375 178.43 100.352C178.43 101.102 178.214 101.773 177.783 102.364C177.357 102.955 176.76 103.42 175.993 103.761C175.226 104.102 174.334 104.273 173.317 104.273C171.982 104.273 170.876 103.983 170.001 103.403C169.126 102.824 168.572 101.977 168.339 100.864L170.249 100.386C170.43 101.091 170.774 101.619 171.28 101.972C171.791 102.324 172.459 102.5 173.283 102.5C174.22 102.5 174.964 102.301 175.516 101.903C176.072 101.5 176.351 101.017 176.351 100.455C176.351 100 176.192 99.6193 175.874 99.3125C175.555 99 175.067 98.767 174.408 98.6136L172.226 98.1023C171.027 97.8182 170.146 97.3778 169.584 96.7812C169.027 96.179 168.749 95.4261 168.749 94.5227C168.749 93.7841 168.956 93.1307 169.371 92.5625C169.791 91.9943 170.362 91.5483 171.084 91.2244C171.811 90.9006 172.635 90.7386 173.555 90.7386C174.851 90.7386 175.868 91.0227 176.607 91.5909C177.351 92.1591 177.879 92.9091 178.192 93.8409Z" fill="white" fill-opacity="0.8"/>
<path d="M108.234 180.239L107.183 184.401H87.9077L88.9588 180.239H108.234ZM97.9219 202L88.4332 190.821L88.4616 186.886H93.1349C94.1198 186.886 94.9295 186.688 95.5639 186.29C96.2079 185.883 96.6861 185.352 96.9986 184.699C97.3205 184.045 97.4863 183.335 97.4957 182.568C97.4863 181.403 97.1501 180.438 96.4872 179.67C95.8338 178.894 94.7164 178.506 93.1349 178.506H87.9077L89.1435 172.909H93.1349C95.5876 172.909 97.6425 173.264 99.2997 173.974C100.957 174.685 102.207 175.712 103.05 177.057C103.893 178.402 104.319 180.026 104.328 181.929C104.319 183.605 104.063 185.049 103.561 186.261C103.069 187.473 102.302 188.491 101.26 189.315C100.228 190.139 98.8878 190.816 97.2401 191.347L96.9702 191.46L105.351 201.73V202H97.9219ZM108.277 172.909L107.183 177.156L91.1037 177.185L92.1974 172.909H108.277ZM125.354 172.909V202H118.337V179.472H118.167L111.661 183.449V177.369L118.835 172.909H125.354ZM133.021 202L144.754 178.761V178.577H131.033V172.909H152.027V178.619L140.251 202H133.021ZM166.633 202.398C164.512 202.398 162.627 202.014 160.979 201.247C159.332 200.48 158.03 199.424 157.073 198.08C156.126 196.735 155.634 195.191 155.596 193.449H162.414C162.471 194.519 162.906 195.381 163.721 196.034C164.535 196.678 165.506 197 166.633 197C167.513 197 168.295 196.806 168.977 196.418C169.658 196.029 170.193 195.485 170.582 194.784C170.97 194.074 171.159 193.259 171.15 192.341C171.159 191.403 170.965 190.584 170.567 189.884C170.179 189.183 169.639 188.638 168.948 188.25C168.266 187.852 167.48 187.653 166.59 187.653C165.747 187.644 164.947 187.829 164.19 188.207C163.442 188.586 162.873 189.102 162.485 189.756L156.278 188.591L157.542 172.909H176.207V178.577H163.323L162.656 185.438H162.826C163.309 184.633 164.085 183.97 165.156 183.449C166.235 182.919 167.461 182.653 168.835 182.653C170.577 182.653 172.13 183.061 173.494 183.875C174.867 184.68 175.946 185.797 176.732 187.227C177.528 188.657 177.925 190.295 177.925 192.142C177.925 194.14 177.452 195.911 176.505 197.455C175.567 198.998 174.251 200.21 172.556 201.091C170.871 201.962 168.896 202.398 166.633 202.398Z" fill="white" fill-opacity="0.9"/>
<path d="M115.75 135.739L115.153 137.844H103.98L104.576 135.739H115.75ZM110.312 149L104.21 141.594L104.193 139.932H107.218C107.974 139.932 108.613 139.815 109.136 139.582C109.659 139.349 110.056 139.011 110.329 138.568C110.602 138.119 110.738 137.574 110.738 136.932C110.738 135.977 110.454 135.219 109.886 134.656C109.318 134.094 108.429 133.812 107.218 133.812H103.98L104.602 131.545H107.218C108.627 131.545 109.789 131.77 110.704 132.219C111.619 132.668 112.301 133.29 112.75 134.085C113.199 134.881 113.423 135.798 113.423 136.838C113.423 137.764 113.238 138.602 112.869 139.352C112.5 140.102 111.912 140.713 111.105 141.185C110.298 141.656 109.238 141.932 107.926 142.011L107.849 142.028L113.423 148.855V149H110.312ZM115.758 131.545L115.153 133.668L106.221 133.616L106.826 131.545H115.758ZM118.136 149V147.091L124.042 140.972C124.673 140.307 125.193 139.724 125.602 139.224C126.017 138.719 126.326 138.239 126.531 137.784C126.735 137.33 126.838 136.847 126.838 136.335C126.838 135.756 126.701 135.256 126.429 134.835C126.156 134.409 125.784 134.082 125.312 133.855C124.841 133.622 124.309 133.506 123.718 133.506C123.093 133.506 122.548 133.634 122.082 133.889C121.616 134.145 121.258 134.506 121.008 134.972C120.758 135.437 120.633 135.983 120.633 136.608H118.119C118.119 135.545 118.363 134.616 118.852 133.821C119.341 133.026 120.011 132.409 120.863 131.972C121.716 131.528 122.684 131.307 123.77 131.307C124.866 131.307 125.832 131.526 126.667 131.963C127.508 132.395 128.164 132.986 128.636 133.736C129.108 134.48 129.343 135.321 129.343 136.259C129.343 136.906 129.221 137.54 128.977 138.159C128.738 138.778 128.321 139.469 127.724 140.23C127.127 140.986 126.298 141.903 125.235 142.983L121.767 146.614V146.741H129.625V149H118.136ZM132.113 145.591V143.46L139.656 131.545H141.335V134.682H140.27L134.875 143.222V143.358H145.213V145.591H132.113ZM140.389 149V144.943L140.406 143.972V131.545H142.903V149H140.389ZM153.987 131.307C154.765 131.312 155.532 131.455 156.288 131.733C157.044 132.011 157.725 132.466 158.333 133.097C158.947 133.727 159.436 134.58 159.799 135.653C160.169 136.722 160.356 138.051 160.362 139.642C160.362 141.17 160.208 142.531 159.902 143.724C159.595 144.912 159.154 145.915 158.581 146.733C158.012 147.551 157.322 148.173 156.51 148.599C155.697 149.026 154.782 149.239 153.765 149.239C152.725 149.239 151.802 149.034 150.995 148.625C150.189 148.216 149.532 147.651 149.027 146.929C148.521 146.202 148.206 145.366 148.081 144.423H150.68C150.85 145.173 151.197 145.781 151.72 146.247C152.248 146.707 152.93 146.938 153.765 146.938C155.044 146.938 156.041 146.381 156.757 145.267C157.473 144.148 157.833 142.585 157.839 140.58H157.703C157.407 141.068 157.038 141.489 156.595 141.841C156.157 142.193 155.666 142.466 155.12 142.659C154.575 142.852 153.993 142.949 153.373 142.949C152.368 142.949 151.453 142.702 150.629 142.207C149.805 141.713 149.149 141.034 148.66 140.17C148.172 139.307 147.927 138.321 147.927 137.213C147.927 136.111 148.177 135.111 148.677 134.213C149.183 133.315 149.887 132.605 150.791 132.082C151.7 131.554 152.765 131.295 153.987 131.307ZM153.995 133.523C153.331 133.523 152.731 133.687 152.197 134.017C151.669 134.341 151.251 134.781 150.944 135.338C150.637 135.889 150.484 136.503 150.484 137.179C150.484 137.855 150.632 138.469 150.927 139.02C151.228 139.565 151.637 140 152.154 140.324C152.677 140.642 153.274 140.801 153.944 140.801C154.444 140.801 154.91 140.705 155.342 140.511C155.774 140.318 156.152 140.051 156.475 139.71C156.799 139.364 157.052 138.972 157.234 138.534C157.416 138.097 157.507 137.636 157.507 137.153C157.507 136.511 157.353 135.915 157.047 135.364C156.745 134.812 156.331 134.369 155.802 134.034C155.274 133.693 154.672 133.523 153.995 133.523Z" fill="white" fill-opacity="0.9"/>
<path d="M103.238 141.142H161.76V142.778H103.238V141.142Z" fill="white" fill-opacity="0.9"/>
<path d="M108.041 52V41.8182H111.86C112.642 41.8182 113.298 41.964 113.828 42.2557C114.362 42.5473 114.765 42.9484 115.036 43.4588C115.311 43.9659 115.449 44.5426 115.449 45.1889C115.449 45.8419 115.311 46.4219 115.036 46.929C114.761 47.4361 114.355 47.8355 113.818 48.1271C113.281 48.4155 112.62 48.5597 111.835 48.5597H109.304V47.0433H111.586C112.044 47.0433 112.418 46.9638 112.71 46.8047C113.001 46.6456 113.217 46.4268 113.356 46.1484C113.499 45.87 113.57 45.5502 113.57 45.1889C113.57 44.8277 113.499 44.5095 113.356 44.2344C113.217 43.9593 113 43.7455 112.705 43.593C112.413 43.4373 112.037 43.3594 111.576 43.3594H109.886V52H108.041ZM120.193 52.1491C119.447 52.1491 118.801 51.9851 118.254 51.657C117.707 51.3288 117.283 50.8698 116.982 50.2798C116.683 49.6899 116.534 49.0005 116.534 48.2116C116.534 47.4228 116.683 46.7318 116.982 46.1385C117.283 45.5452 117.707 45.0845 118.254 44.7564C118.801 44.4283 119.447 44.2642 120.193 44.2642C120.939 44.2642 121.585 44.4283 122.132 44.7564C122.679 45.0845 123.102 45.5452 123.4 46.1385C123.701 46.7318 123.852 47.4228 123.852 48.2116C123.852 49.0005 123.701 49.6899 123.4 50.2798C123.102 50.8698 122.679 51.3288 122.132 51.657C121.585 51.9851 120.939 52.1491 120.193 52.1491ZM120.203 50.7074C120.607 50.7074 120.946 50.5964 121.217 50.3743C121.489 50.1489 121.691 49.8473 121.824 49.4695C121.96 49.0916 122.028 48.6707 122.028 48.2067C122.028 47.7393 121.96 47.3168 121.824 46.9389C121.691 46.5578 121.489 46.2545 121.217 46.0291C120.946 45.8037 120.607 45.6911 120.203 45.6911C119.789 45.6911 119.444 45.8037 119.169 46.0291C118.897 46.2545 118.693 46.5578 118.558 46.9389C118.425 47.3168 118.359 47.7393 118.359 48.2067C118.359 48.6707 118.425 49.0916 118.558 49.4695C118.693 49.8473 118.897 50.1489 119.169 50.3743C119.444 50.5964 119.789 50.7074 120.203 50.7074ZM125.38 54.8636V44.3636H127.15V45.6264H127.254C127.347 45.4408 127.478 45.2436 127.647 45.0348C127.816 44.8227 128.045 44.642 128.333 44.4929C128.621 44.3404 128.989 44.2642 129.437 44.2642C130.027 44.2642 130.559 44.415 131.032 44.7166C131.51 45.0149 131.888 45.4574 132.166 46.044C132.448 46.6274 132.589 47.3433 132.589 48.1918C132.589 49.0303 132.451 49.7429 132.176 50.3295C131.901 50.9162 131.526 51.3636 131.052 51.6719C130.578 51.9801 130.041 52.1342 129.442 52.1342C129.004 52.1342 128.641 52.0613 128.353 51.9155C128.064 51.7696 127.832 51.594 127.657 51.3885C127.484 51.1797 127.35 50.9825 127.254 50.7969H127.18V54.8636H125.38ZM127.145 48.1818C127.145 48.6757 127.214 49.1082 127.354 49.4794C127.496 49.8506 127.7 50.1406 127.965 50.3494C128.233 50.5549 128.558 50.6577 128.939 50.6577C129.337 50.6577 129.67 50.5516 129.939 50.3395C130.207 50.1241 130.409 49.8307 130.545 49.4595C130.684 49.085 130.754 48.6591 130.754 48.1818C130.754 47.7079 130.686 47.2869 130.55 46.919C130.414 46.5511 130.212 46.2628 129.944 46.054C129.675 45.8452 129.34 45.7408 128.939 45.7408C128.555 45.7408 128.229 45.8419 127.96 46.044C127.692 46.2462 127.488 46.5296 127.349 46.8942C127.213 47.2588 127.145 47.688 127.145 48.1818ZM138.997 48.7884V44.3636H140.797V52H139.052V50.6428H138.972C138.8 51.0703 138.516 51.42 138.122 51.6918C137.731 51.9635 137.249 52.0994 136.675 52.0994C136.175 52.0994 135.732 51.9884 135.348 51.7663C134.967 51.541 134.668 51.2145 134.453 50.7869C134.238 50.3561 134.13 49.8357 134.13 49.2259V44.3636H135.93V48.9474C135.93 49.4313 136.062 49.8158 136.327 50.1009C136.592 50.3859 136.94 50.5284 137.371 50.5284C137.636 50.5284 137.893 50.4638 138.142 50.3345C138.39 50.2053 138.594 50.013 138.753 49.7578C138.916 49.4993 138.997 49.1761 138.997 48.7884ZM144.447 41.8182V52H142.647V41.8182H144.447ZM148.495 52.1541C148.011 52.1541 147.575 52.0679 147.188 51.8956C146.803 51.7199 146.498 51.4614 146.273 51.12C146.051 50.7786 145.94 50.3577 145.94 49.8572C145.94 49.4264 146.019 49.0701 146.178 48.7884C146.338 48.5066 146.555 48.2812 146.83 48.1122C147.105 47.9432 147.415 47.8156 147.759 47.7294C148.107 47.6399 148.467 47.5753 148.838 47.5355C149.286 47.4891 149.649 47.4477 149.927 47.4112C150.205 47.3714 150.408 47.3118 150.534 47.2322C150.663 47.1494 150.727 47.0218 150.727 46.8494V46.8196C150.727 46.4451 150.616 46.1551 150.394 45.9496C150.172 45.7441 149.852 45.6413 149.435 45.6413C148.994 45.6413 148.644 45.7375 148.386 45.9297C148.131 46.1219 147.958 46.349 147.869 46.6108L146.188 46.3722C146.321 45.9081 146.54 45.5204 146.845 45.2088C147.15 44.8939 147.522 44.6586 147.963 44.5028C148.404 44.3438 148.891 44.2642 149.425 44.2642C149.793 44.2642 150.159 44.3073 150.524 44.3935C150.888 44.4796 151.221 44.6222 151.523 44.821C151.825 45.0166 152.066 45.2834 152.249 45.6214C152.434 45.9595 152.527 46.3821 152.527 46.8892V52H150.797V50.951H150.737C150.628 51.1631 150.474 51.362 150.275 51.5476C150.079 51.7299 149.833 51.8774 149.534 51.9901C149.239 52.0994 148.893 52.1541 148.495 52.1541ZM148.963 50.8317C149.324 50.8317 149.637 50.7604 149.902 50.6179C150.167 50.4721 150.371 50.2798 150.514 50.0412C150.66 49.8026 150.732 49.5424 150.732 49.2607V48.3608C150.676 48.4072 150.58 48.4503 150.444 48.4901C150.311 48.5298 150.162 48.5646 149.997 48.5945C149.831 48.6243 149.667 48.6508 149.504 48.674C149.342 48.6972 149.201 48.7171 149.082 48.7337C148.813 48.7701 148.573 48.8298 148.361 48.9126C148.149 48.9955 147.981 49.1115 147.859 49.2607C147.736 49.4065 147.675 49.5954 147.675 49.8274C147.675 50.1589 147.796 50.4091 148.038 50.5781C148.28 50.7472 148.588 50.8317 148.963 50.8317ZM154.337 52V44.3636H156.082V45.6364H156.161C156.301 45.1955 156.539 44.8558 156.877 44.6172C157.219 44.3752 157.608 44.2543 158.046 44.2543C158.145 44.2543 158.256 44.2592 158.379 44.2692C158.505 44.2758 158.609 44.2874 158.692 44.304V45.9595C158.616 45.933 158.495 45.9098 158.329 45.8899C158.167 45.8667 158.009 45.8551 157.857 45.8551C157.529 45.8551 157.234 45.9264 156.972 46.0689C156.713 46.2081 156.509 46.402 156.36 46.6506C156.211 46.8991 156.137 47.1858 156.137 47.5107V52H154.337Z" fill="#3B5BFF"/>
<path d="M14.0015 51.0015L51.0002 13.9998L78.0024 14.0012L14.0015 78.0015L14.0015 51.0015Z" fill="#0F8C30"/>
<path d="M28.381 59.3844C27.9169 59.8484 27.4236 60.1824 26.901 60.3863C26.3807 60.5879 25.8721 60.6535 25.3753 60.5832C24.8784 60.5082 24.432 60.2914 24.0359 59.9328L24.9218 59.0469C25.1725 59.2602 25.4526 59.3809 25.762 59.409C26.069 59.4348 26.3819 59.3797 26.7006 59.2438C27.0193 59.1079 27.317 58.9016 27.5935 58.6251C27.9029 58.3157 28.1232 57.9876 28.2544 57.6407C28.3857 57.2939 28.4232 56.9564 28.3669 56.6283C28.3107 56.3002 28.156 56.0096 27.9029 55.7565C27.638 55.4916 27.3392 55.3241 27.0064 55.2538C26.6713 55.1811 26.3198 55.2139 25.9518 55.3522C25.5839 55.4905 25.2171 55.7424 24.8515 56.108L24.2749 56.6845L23.5015 55.9111L24.0781 55.3346C24.364 55.0487 24.5632 54.7464 24.6757 54.4276C24.7905 54.1065 24.8151 53.7913 24.7495 53.482C24.6862 53.1703 24.5281 52.8879 24.2749 52.6347C24.0312 52.391 23.7652 52.2328 23.4769 52.1602C23.1887 52.0875 22.8957 52.0992 22.5981 52.1953C22.3028 52.2891 22.0227 52.4684 21.7579 52.7332C21.5095 52.9816 21.3208 53.2617 21.1919 53.5734C21.063 53.8804 21.0149 54.1886 21.0478 54.4979C21.0782 54.805 21.2071 55.0838 21.4345 55.3346L20.5908 56.1783C20.2275 55.7869 20.0107 55.3428 19.9404 54.846C19.8677 54.3468 19.924 53.8452 20.1091 53.3414C20.2966 52.8351 20.5978 52.3746 21.0126 51.9598C21.4579 51.5145 21.9301 51.2227 22.4293 51.0844C22.9262 50.9438 23.4066 50.9344 23.8707 51.0563C24.3347 51.1782 24.7366 51.409 25.0765 51.7489C25.4819 52.1543 25.721 52.6066 25.7936 53.1058C25.8686 53.6027 25.7795 54.0878 25.5264 54.5612L25.5827 54.6175C26.1123 54.2378 26.6608 54.0761 27.2279 54.1323C27.7927 54.1862 28.3036 54.4417 28.7606 54.8987C29.152 55.2901 29.3969 55.7483 29.4954 56.2732C29.5938 56.7935 29.5493 57.3255 29.3618 57.8692C29.1743 58.413 28.8474 58.918 28.381 59.3844ZM34.5998 53.1656C34.0701 53.6952 33.4749 54.0023 32.814 54.0866C32.1507 54.1687 31.4453 54.0327 30.6977 53.6788C29.9477 53.3226 29.1813 52.7531 28.3986 51.9703C27.6205 51.1922 27.0545 50.4294 26.7006 49.6818C26.3467 48.9295 26.2108 48.2217 26.2928 47.5584C26.3748 46.8905 26.6783 46.2941 27.2033 45.7691C27.7283 45.2441 28.3236 44.9418 28.9891 44.8621C29.6547 44.7777 30.3625 44.9137 31.1125 45.2699C31.8624 45.6214 32.6265 46.1862 33.4045 46.9643C34.1873 47.7471 34.7568 48.5135 35.1131 49.2634C35.4669 50.0111 35.6029 50.7165 35.5208 51.3797C35.4365 52.0406 35.1295 52.6359 34.5998 53.1656ZM33.8264 52.3922C34.3514 51.8672 34.5061 51.2063 34.2904 50.4095C34.0748 49.6126 33.4983 48.7455 32.5608 47.808C31.9374 47.1846 31.3398 46.7206 30.768 46.4159C30.1985 46.1089 29.6747 45.9648 29.1966 45.9835C28.7208 45.9999 28.3095 46.1816 27.9626 46.5284C27.4424 47.0487 27.2924 47.712 27.5127 48.5182C27.7306 49.322 28.3072 50.1915 29.2423 51.1266C29.8657 51.75 30.461 52.2141 31.0281 52.5187C31.5953 52.8234 32.1156 52.9664 32.589 52.9476C33.0647 52.9265 33.4772 52.7414 33.8264 52.3922ZM40.6604 44.2082L40.2808 43.8286C40.0183 43.5661 39.832 43.2719 39.7218 42.9462C39.6117 42.6157 39.5952 42.2806 39.6726 41.9408C39.7499 41.5962 39.9386 41.274 40.2386 40.974C40.5432 40.6693 40.8655 40.4807 41.2053 40.408C41.5428 40.333 41.8744 40.353 42.2002 40.4678C42.5236 40.5803 42.8166 40.7678 43.0791 41.0303L43.4587 41.4099C43.7212 41.6724 43.9087 41.9677 44.0212 42.2958C44.1337 42.6192 44.1524 42.952 44.0774 43.2942C44.0024 43.6317 43.815 43.9504 43.515 44.2504C43.2103 44.5551 42.888 44.7461 42.5482 44.8234C42.2061 44.8984 41.8721 44.8808 41.5463 44.7707C41.2182 44.6582 40.9229 44.4707 40.6604 44.2082ZM40.9979 43.1114L41.3776 43.4911C41.5955 43.709 41.8428 43.8532 42.1193 43.9235C42.3935 43.9914 42.6572 43.8989 42.9103 43.6458C43.1564 43.3997 43.2443 43.1407 43.174 42.8688C43.1037 42.5923 42.9595 42.345 42.7416 42.1271L42.3619 41.7474C42.1439 41.5295 41.9002 41.3841 41.6307 41.3115C41.3588 41.2365 41.0963 41.3256 40.8432 41.5787C40.5972 41.8248 40.5069 42.0884 40.5725 42.3696C40.6382 42.6462 40.78 42.8934 40.9979 43.1114ZM32.9546 43.6739L32.5749 43.2942C32.3124 43.0317 32.1261 42.7376 32.0159 42.4118C31.9058 42.0814 31.8894 41.7462 31.9667 41.4064C32.0441 41.0619 32.2327 40.7397 32.5327 40.4397C32.8374 40.135 33.1596 39.9463 33.4995 39.8737C33.8369 39.7987 34.1686 39.8186 34.4943 39.9334C34.8178 40.0459 35.1107 40.2334 35.3732 40.4959L35.7529 40.8756C36.0154 41.1381 36.2028 41.4334 36.3153 41.7615C36.4278 42.0849 36.4466 42.4177 36.3716 42.7599C36.2966 43.0973 36.1091 43.4161 35.8091 43.7161C35.5044 44.0207 35.1822 44.2117 34.8424 44.2891C34.5002 44.3641 34.1662 44.3465 33.8405 44.2363C33.5124 44.1239 33.2171 43.9364 32.9546 43.6739ZM33.2921 42.5771L33.6717 42.9567C33.8897 43.1747 34.1369 43.3188 34.4135 43.3891C34.6877 43.4571 34.9513 43.3645 35.2045 43.1114C35.4505 42.8653 35.5384 42.6064 35.4681 42.3345C35.3978 42.0579 35.2537 41.8107 35.0357 41.5927L34.656 41.2131C34.4381 40.9951 34.1944 40.8498 33.9248 40.7772C33.653 40.7022 33.3905 40.7912 33.1374 41.0443C32.8913 41.2904 32.8011 41.5541 32.8667 41.8353C32.9323 42.1118 33.0741 42.3591 33.2921 42.5771ZM38.6918 48.8767L36.4419 36.7274L37.2434 35.9258L39.4933 48.0752L38.6918 48.8767ZM51.488 36.3055C51.0005 36.793 50.4568 37.1047 49.8568 37.2406C49.2592 37.3742 48.6487 37.3355 48.0253 37.1246C47.4042 36.9113 46.8148 36.5258 46.257 35.968C45.6945 35.4055 45.3055 34.8126 45.0899 34.1892C44.8766 33.5635 44.8368 32.9518 44.9704 32.3541C45.1063 31.7542 45.418 31.2104 45.9055 30.723C46.3929 30.2355 46.9355 29.925 47.5331 29.7914C48.1331 29.6554 48.7448 29.6953 49.3682 29.9109C49.9939 30.1242 50.588 30.512 51.1505 31.0745C51.7083 31.6323 52.0927 32.2229 52.3036 32.8463C52.5169 33.4674 52.5555 34.0779 52.4196 34.6778C52.286 35.2755 51.9755 35.818 51.488 36.3055ZM50.7427 35.5602C51.113 35.1899 51.3228 34.7903 51.372 34.3615C51.4212 33.9326 51.3486 33.506 51.154 33.0818C50.9595 32.6576 50.6818 32.2651 50.3209 31.9042C49.96 31.5432 49.5662 31.2644 49.1397 31.0675C48.7131 30.8706 48.2843 30.7956 47.853 30.8425C47.4218 30.8894 47.021 31.098 46.6507 31.4682C46.2805 31.8385 46.0719 32.2393 46.025 32.6705C45.9781 33.1018 46.0531 33.5306 46.25 33.9572C46.4469 34.3837 46.7257 34.7775 47.0867 35.1384C47.4476 35.4993 47.8401 35.777 48.2643 35.9715C48.6885 36.1661 49.1151 36.2387 49.544 36.1895C49.9728 36.1403 50.3724 35.9305 50.7427 35.5602ZM52.0935 24.6755L52.7966 25.3786L49.8858 28.2894L49.1827 27.5863L52.0935 24.6755ZM55.4543 32.1142L49.3093 25.9692C48.9999 25.6599 48.8148 25.3294 48.7539 24.9779C48.6929 24.6263 48.7269 24.283 48.8558 23.9478C48.9847 23.6127 49.1781 23.3162 49.4359 23.0584C49.6398 22.8545 49.8226 22.7045 49.9843 22.6084C50.146 22.5124 50.2725 22.4467 50.3639 22.4116L50.842 23.3678C50.7858 23.3959 50.7096 23.4369 50.6135 23.4908C50.5198 23.5424 50.4131 23.6279 50.2936 23.7474C50.0194 24.0217 49.8905 24.2888 49.9069 24.549C49.9257 24.8068 50.0686 25.0693 50.3358 25.3364L56.2839 31.2846L55.4543 32.1142ZM55.6608 21.1082L56.3639 21.8113L53.4531 24.7221L52.75 24.019L55.6608 21.1082ZM59.0216 28.5469L52.8766 22.4019C52.5672 22.0926 52.3821 21.7621 52.3212 21.4106C52.2602 21.059 52.2942 20.7157 52.4231 20.3805C52.552 20.0454 52.7454 19.7489 53.0032 19.4911C53.207 19.2872 53.3899 19.1372 53.5516 19.0411C53.7133 18.9451 53.8398 18.8794 53.9312 18.8443L54.4093 19.8005C54.3531 19.8286 54.2769 19.8696 54.1808 19.9235C54.0871 19.9751 53.9804 20.0606 53.8609 20.1802C53.5867 20.4544 53.4578 20.7215 53.4742 20.9817C53.493 21.2395 53.6359 21.502 53.9031 21.7691L59.8512 27.7173L59.0216 28.5469Z" fill="white"/>
</svg>
