<svg width="254" height="241" viewBox="0 0 254 241" fill="none" xmlns="http://www.w3.org/2000/svg">
<rect x="16" y="16" width="236" height="223" rx="22" fill="black" fill-opacity="0.4" stroke="#3B5BFF" stroke-width="4"/>
<path d="M86.9741 104.239C85.8491 104.239 84.8462 104.045 83.9656 103.659C83.0906 103.273 82.3945 102.736 81.8775 102.048C81.3661 101.355 81.0877 100.551 81.0423 99.6364H83.19C83.2354 100.199 83.4286 100.685 83.7695 101.094C84.1104 101.497 84.5565 101.81 85.1076 102.031C85.6587 102.253 86.2695 102.364 86.94 102.364C87.69 102.364 88.3548 102.233 88.9343 101.972C89.5138 101.71 89.9684 101.347 90.2979 100.881C90.6275 100.415 90.7923 99.875 90.7923 99.2614C90.7923 98.6193 90.6332 98.054 90.315 97.5653C89.9968 97.071 89.5309 96.6847 88.9173 96.4062C88.3036 96.1278 87.5536 95.9886 86.6673 95.9886H85.2695V94.1136H86.6673C87.3604 94.1136 87.9684 93.9886 88.4911 93.7386C89.0195 93.4886 89.4315 93.1364 89.7269 92.6818C90.0281 92.2273 90.1786 91.6932 90.1786 91.0795C90.1786 90.4886 90.0479 89.9744 89.7866 89.5369C89.5252 89.0994 89.1559 88.7585 88.6786 88.5142C88.207 88.2699 87.6502 88.1477 87.0082 88.1477C86.4059 88.1477 85.8377 88.2585 85.3036 88.4801C84.7752 88.696 84.3434 89.0114 84.0082 89.4261C83.6729 89.8352 83.4911 90.3295 83.4627 90.9091H81.4173C81.4513 89.9943 81.7269 89.1932 82.244 88.5057C82.761 87.8125 83.4371 87.2727 84.2724 86.8864C85.1133 86.5 86.0366 86.3068 87.0423 86.3068C88.1218 86.3068 89.0479 86.5256 89.8207 86.9631C90.5934 87.3949 91.1871 87.9659 91.6019 88.6761C92.0167 89.3864 92.2241 90.1534 92.2241 90.9773C92.2241 91.9602 91.9656 92.7983 91.4485 93.4915C90.9371 94.1847 90.2411 94.6648 89.3604 94.9318V95.0682C90.4627 95.25 91.3235 95.7187 91.9428 96.4744C92.5621 97.2244 92.8718 98.1534 92.8718 99.2614C92.8718 100.21 92.6133 101.062 92.0962 101.818C91.5849 102.568 90.886 103.159 89.9996 103.591C89.1133 104.023 88.1048 104.239 86.9741 104.239ZM103.414 86.5455H105.937L111.869 101.034H112.074L118.005 86.5455H120.528V104H118.551V90.7386H118.38L112.926 104H111.017L105.562 90.7386H105.392V104H103.414V86.5455ZM129.811 104.273C128.63 104.273 127.593 103.991 126.701 103.429C125.814 102.866 125.121 102.08 124.621 101.068C124.127 100.057 123.88 98.875 123.88 97.5227C123.88 96.1591 124.127 94.9687 124.621 93.9517C125.121 92.9347 125.814 92.1449 126.701 91.5824C127.593 91.0199 128.63 90.7386 129.811 90.7386C130.993 90.7386 132.027 91.0199 132.914 91.5824C133.806 92.1449 134.499 92.9347 134.993 93.9517C135.493 94.9687 135.743 96.1591 135.743 97.5227C135.743 98.875 135.493 100.057 134.993 101.068C134.499 102.08 133.806 102.866 132.914 103.429C132.027 103.991 130.993 104.273 129.811 104.273ZM129.811 102.466C130.709 102.466 131.448 102.236 132.027 101.776C132.607 101.315 133.036 100.71 133.314 99.9602C133.593 99.2102 133.732 98.3977 133.732 97.5227C133.732 96.6477 133.593 95.8324 133.314 95.0767C133.036 94.321 132.607 93.7102 132.027 93.2443C131.448 92.7784 130.709 92.5455 129.811 92.5455C128.914 92.5455 128.175 92.7784 127.596 93.2443C127.016 93.7102 126.587 94.321 126.309 95.0767C126.03 95.8324 125.891 96.6477 125.891 97.5227C125.891 98.3977 126.03 99.2102 126.309 99.9602C126.587 100.71 127.016 101.315 127.596 101.776C128.175 102.236 128.914 102.466 129.811 102.466ZM140.825 96.125V104H138.814V90.9091H140.757V92.9545H140.927C141.234 92.2898 141.7 91.7557 142.325 91.3523C142.95 90.9432 143.757 90.7386 144.745 90.7386C145.632 90.7386 146.407 90.9205 147.072 91.2841C147.737 91.642 148.254 92.1875 148.623 92.9205C148.993 93.6477 149.177 94.5682 149.177 95.6818V104H147.166V95.8182C147.166 94.7898 146.899 93.9886 146.365 93.4148C145.831 92.8352 145.098 92.5455 144.166 92.5455C143.524 92.5455 142.95 92.6847 142.444 92.9631C141.944 93.2415 141.549 93.6477 141.26 94.1818C140.97 94.7159 140.825 95.3636 140.825 96.125ZM158.546 90.9091V92.6136H151.762V90.9091H158.546ZM153.739 87.7727H155.75V100.25C155.75 100.818 155.833 101.244 155.998 101.528C156.168 101.807 156.384 101.994 156.645 102.091C156.912 102.182 157.194 102.227 157.489 102.227C157.711 102.227 157.892 102.216 158.034 102.193C158.176 102.165 158.29 102.142 158.375 102.125L158.784 103.932C158.648 103.983 158.458 104.034 158.213 104.085C157.969 104.142 157.659 104.17 157.284 104.17C156.716 104.17 156.159 104.048 155.614 103.804C155.074 103.56 154.625 103.188 154.267 102.688C153.915 102.188 153.739 101.557 153.739 100.795V87.7727ZM163.864 96.125V104H161.853V86.5455H163.864V92.9545H164.034C164.341 92.2784 164.801 91.7415 165.415 91.3438C166.034 90.9403 166.858 90.7386 167.887 90.7386C168.779 90.7386 169.56 90.9176 170.23 91.2756C170.901 91.6278 171.421 92.1705 171.79 92.9034C172.165 93.6307 172.353 94.5568 172.353 95.6818V104H170.341V95.8182C170.341 94.7784 170.071 93.9744 169.532 93.4062C168.998 92.8324 168.256 92.5455 167.307 92.5455C166.648 92.5455 166.057 92.6847 165.534 92.9631C165.017 93.2415 164.608 93.6477 164.307 94.1818C164.012 94.7159 163.864 95.3636 163.864 96.125ZM185.305 93.8409L183.498 94.3523C183.385 94.0511 183.217 93.7585 182.995 93.4744C182.779 93.1847 182.484 92.946 182.109 92.7585C181.734 92.571 181.254 92.4773 180.669 92.4773C179.868 92.4773 179.2 92.6619 178.666 93.0312C178.137 93.3949 177.873 93.858 177.873 94.4205C177.873 94.9205 178.055 95.3153 178.419 95.6051C178.782 95.8949 179.35 96.1364 180.123 96.3295L182.066 96.8068C183.237 97.0909 184.109 97.5256 184.683 98.1108C185.257 98.6903 185.544 99.4375 185.544 100.352C185.544 101.102 185.328 101.773 184.896 102.364C184.47 102.955 183.873 103.42 183.106 103.761C182.339 104.102 181.447 104.273 180.43 104.273C179.095 104.273 177.99 103.983 177.115 103.403C176.24 102.824 175.686 101.977 175.453 100.864L177.362 100.386C177.544 101.091 177.887 101.619 178.393 101.972C178.904 102.324 179.572 102.5 180.396 102.5C181.333 102.5 182.078 102.301 182.629 101.903C183.186 101.5 183.464 101.017 183.464 100.455C183.464 100 183.305 99.6193 182.987 99.3125C182.669 99 182.18 98.767 181.521 98.6136L179.339 98.1023C178.14 97.8182 177.26 97.3778 176.697 96.7812C176.14 96.179 175.862 95.4261 175.862 94.5227C175.862 93.7841 176.069 93.1307 176.484 92.5625C176.904 91.9943 177.475 91.5483 178.197 91.2244C178.924 90.9006 179.748 90.7386 180.669 90.7386C181.964 90.7386 182.981 91.0227 183.72 91.5909C184.464 92.1591 184.993 92.9091 185.305 93.8409Z" fill="white" fill-opacity="0.8"/>
<path d="M102.953 180.239L101.902 184.401H82.6264L83.6776 180.239H102.953ZM92.6406 202L83.152 190.821L83.1804 186.886H87.8537C88.8385 186.886 89.6482 186.688 90.2827 186.29C90.9266 185.883 91.4048 185.352 91.7173 184.699C92.0393 184.045 92.205 183.335 92.2145 182.568C92.205 181.403 91.8688 180.438 91.206 179.67C90.5526 178.894 89.4351 178.506 87.8537 178.506H82.6264L83.8622 172.909H87.8537C90.3063 172.909 92.3613 173.264 94.0185 173.974C95.6757 174.685 96.9257 175.712 97.7685 177.057C98.6113 178.402 99.0374 180.026 99.0469 181.929C99.0374 183.605 98.7817 185.049 98.2798 186.261C97.7874 187.473 97.0204 188.491 95.9787 189.315C94.9465 190.139 93.6065 190.816 91.9588 191.347L91.6889 191.46L100.07 201.73V202H92.6406ZM102.996 172.909L101.902 177.156L85.8224 177.185L86.9162 172.909H102.996ZM106.266 197.17V191.688L118.184 172.909H123.056V180.352H120.229L113.255 191.403V191.631H130.513V197.17H106.266ZM120.315 202V195.494L120.457 193.094V172.909H127.033V202H120.315ZM134.2 202V196.943L144.81 187.653C145.606 186.934 146.283 186.276 146.842 185.679C147.4 185.073 147.826 184.467 148.12 183.861C148.414 183.245 148.56 182.578 148.56 181.858C148.56 181.053 148.385 180.366 148.035 179.798C147.684 179.221 147.201 178.776 146.586 178.463C145.97 178.151 145.265 177.994 144.469 177.994C143.665 177.994 142.959 178.16 142.353 178.491C141.747 178.813 141.273 179.282 140.933 179.898C140.601 180.513 140.435 181.261 140.435 182.142H133.773C133.773 180.163 134.219 178.454 135.109 177.014C135.999 175.575 137.249 174.467 138.859 173.69C140.478 172.904 142.358 172.511 144.498 172.511C146.704 172.511 148.622 172.881 150.251 173.619C151.879 174.358 153.139 175.39 154.029 176.716C154.929 178.032 155.379 179.562 155.379 181.304C155.379 182.412 155.156 183.51 154.711 184.599C154.266 185.688 153.466 186.891 152.31 188.207C151.165 189.524 149.536 191.1 147.424 192.938L143.944 196.148V196.332H155.734V202H134.2ZM171.739 202.71C169.201 202.71 167.013 202.109 165.176 200.906C163.339 199.694 161.923 197.956 160.929 195.693C159.935 193.42 159.442 190.688 159.452 187.497C159.461 184.306 159.958 181.598 160.943 179.372C161.938 177.137 163.348 175.437 165.176 174.273C167.013 173.098 169.201 172.511 171.739 172.511C174.277 172.511 176.464 173.098 178.301 174.273C180.148 175.437 181.568 177.137 182.562 179.372C183.557 181.607 184.049 184.315 184.04 187.497C184.04 190.698 183.543 193.435 182.548 195.707C181.554 197.98 180.138 199.718 178.301 200.92C176.473 202.114 174.286 202.71 171.739 202.71ZM171.739 196.957C173.254 196.957 174.48 196.186 175.418 194.642C176.355 193.089 176.819 190.707 176.81 187.497C176.81 185.395 176.597 183.662 176.17 182.298C175.744 180.925 175.152 179.902 174.395 179.23C173.637 178.558 172.752 178.222 171.739 178.222C170.233 178.222 169.016 178.984 168.088 180.509C167.16 182.024 166.691 184.353 166.682 187.497C166.672 189.628 166.876 191.394 167.293 192.795C167.719 194.197 168.315 195.243 169.082 195.935C169.849 196.616 170.735 196.957 171.739 196.957Z" fill="white" fill-opacity="0.9"/>
<path d="M115.703 135.739L115.106 137.844H103.933L104.529 135.739H115.703ZM110.265 149L104.163 141.594L104.146 139.932H107.172C107.927 139.932 108.566 139.815 109.089 139.582C109.612 139.349 110.01 139.011 110.282 138.568C110.555 138.119 110.691 137.574 110.691 136.932C110.691 135.977 110.407 135.219 109.839 134.656C109.271 134.094 108.382 133.812 107.172 133.812H103.933L104.555 131.545H107.172C108.581 131.545 109.743 131.77 110.657 132.219C111.572 132.668 112.254 133.29 112.703 134.085C113.152 134.881 113.376 135.798 113.376 136.838C113.376 137.764 113.191 138.602 112.822 139.352C112.453 140.102 111.865 140.713 111.058 141.185C110.251 141.656 109.191 141.932 107.879 142.011L107.802 142.028L113.376 148.855V149H110.265ZM115.711 131.545L115.106 133.668L106.174 133.616L106.779 131.545H115.711ZM123.85 149.239C122.782 149.239 121.822 149.034 120.97 148.625C120.123 148.21 119.447 147.642 118.941 146.92C118.436 146.199 118.166 145.375 118.132 144.449H120.689C120.751 145.199 121.083 145.815 121.686 146.298C122.288 146.781 123.01 147.023 123.85 147.023C124.521 147.023 125.115 146.869 125.632 146.562C126.154 146.25 126.564 145.821 126.859 145.276C127.16 144.73 127.311 144.108 127.311 143.409C127.311 142.699 127.157 142.065 126.85 141.509C126.544 140.952 126.12 140.514 125.581 140.196C125.047 139.878 124.433 139.716 123.74 139.71C123.211 139.71 122.68 139.801 122.146 139.983C121.612 140.165 121.18 140.403 120.85 140.699L118.439 140.341L119.419 131.545H129.015V133.804H121.609L121.055 138.688H121.157C121.498 138.358 121.95 138.082 122.512 137.861C123.081 137.639 123.689 137.528 124.336 137.528C125.399 137.528 126.345 137.781 127.174 138.287C128.01 138.793 128.666 139.483 129.143 140.358C129.626 141.227 129.865 142.227 129.859 143.358C129.865 144.489 129.609 145.497 129.092 146.384C128.581 147.27 127.87 147.969 126.961 148.48C126.058 148.986 125.021 149.239 123.85 149.239ZM138.776 131.307C139.554 131.312 140.321 131.455 141.077 131.733C141.833 132.011 142.515 132.466 143.123 133.097C143.736 133.727 144.225 134.58 144.588 135.653C144.958 136.722 145.145 138.051 145.151 139.642C145.151 141.17 144.998 142.531 144.691 143.724C144.384 144.912 143.944 145.915 143.37 146.733C142.801 147.551 142.111 148.173 141.299 148.599C140.486 149.026 139.571 149.239 138.554 149.239C137.515 149.239 136.591 149.034 135.784 148.625C134.978 148.216 134.321 147.651 133.816 146.929C133.31 146.202 132.995 145.366 132.87 144.423H135.469C135.64 145.173 135.986 145.781 136.509 146.247C137.037 146.707 137.719 146.938 138.554 146.938C139.833 146.938 140.83 146.381 141.546 145.267C142.262 144.148 142.623 142.585 142.628 140.58H142.492C142.196 141.068 141.827 141.489 141.384 141.841C140.946 142.193 140.455 142.466 139.909 142.659C139.364 142.852 138.782 142.949 138.162 142.949C137.157 142.949 136.242 142.702 135.418 142.207C134.594 141.713 133.938 141.034 133.449 140.17C132.961 139.307 132.716 138.321 132.716 137.213C132.716 136.111 132.966 135.111 133.466 134.213C133.972 133.315 134.676 132.605 135.58 132.082C136.489 131.554 137.554 131.295 138.776 131.307ZM138.784 133.523C138.12 133.523 137.52 133.687 136.986 134.017C136.458 134.341 136.04 134.781 135.733 135.338C135.426 135.889 135.273 136.503 135.273 137.179C135.273 137.855 135.421 138.469 135.716 139.02C136.017 139.565 136.426 140 136.944 140.324C137.466 140.642 138.063 140.801 138.733 140.801C139.233 140.801 139.699 140.705 140.131 140.511C140.563 140.318 140.941 140.051 141.265 139.71C141.588 139.364 141.841 138.972 142.023 138.534C142.205 138.097 142.296 137.636 142.296 137.153C142.296 136.511 142.142 135.915 141.836 135.364C141.534 134.812 141.12 134.369 140.591 134.034C140.063 133.693 139.461 133.523 138.784 133.523ZM154.034 131.307C154.812 131.312 155.579 131.455 156.335 131.733C157.091 132.011 157.772 132.466 158.38 133.097C158.994 133.727 159.483 134.58 159.846 135.653C160.216 136.722 160.403 138.051 160.409 139.642C160.409 141.17 160.255 142.531 159.949 143.724C159.642 144.912 159.201 145.915 158.627 146.733C158.059 147.551 157.369 148.173 156.556 148.599C155.744 149.026 154.829 149.239 153.812 149.239C152.772 149.239 151.849 149.034 151.042 148.625C150.235 148.216 149.579 147.651 149.074 146.929C148.568 146.202 148.252 145.366 148.127 144.423H150.727C150.897 145.173 151.244 145.781 151.767 146.247C152.295 146.707 152.977 146.938 153.812 146.938C155.091 146.938 156.088 146.381 156.804 145.267C157.52 144.148 157.88 142.585 157.886 140.58H157.75C157.454 141.068 157.085 141.489 156.642 141.841C156.204 142.193 155.713 142.466 155.167 142.659C154.622 142.852 154.039 142.949 153.42 142.949C152.414 142.949 151.5 142.702 150.676 142.207C149.852 141.713 149.196 141.034 148.707 140.17C148.218 139.307 147.974 138.321 147.974 137.213C147.974 136.111 148.224 135.111 148.724 134.213C149.23 133.315 149.934 132.605 150.838 132.082C151.747 131.554 152.812 131.295 154.034 131.307ZM154.042 133.523C153.377 133.523 152.778 133.687 152.244 134.017C151.716 134.341 151.298 134.781 150.991 135.338C150.684 135.889 150.531 136.503 150.531 137.179C150.531 137.855 150.679 138.469 150.974 139.02C151.275 139.565 151.684 140 152.201 140.324C152.724 140.642 153.321 140.801 153.991 140.801C154.491 140.801 154.957 140.705 155.389 140.511C155.821 140.318 156.199 140.051 156.522 139.71C156.846 139.364 157.099 138.972 157.281 138.534C157.463 138.097 157.554 137.636 157.554 137.153C157.554 136.511 157.4 135.915 157.093 135.364C156.792 134.812 156.377 134.369 155.849 134.034C155.321 133.693 154.718 133.523 154.042 133.523Z" fill="white" fill-opacity="0.9"/>
<path d="M103.191 141.142H161.806V142.778H103.191V141.142Z" fill="white" fill-opacity="0.9"/>
<path d="M14.0015 51.0015L51.0002 13.9998L78.0024 14.0012L14.0015 78.0015L14.0015 51.0015Z" fill="#0F8C30"/>
<path d="M28.381 59.3844C27.9169 59.8484 27.4236 60.1824 26.901 60.3863C26.3807 60.5879 25.8721 60.6535 25.3753 60.5832C24.8784 60.5082 24.432 60.2914 24.0359 59.9328L24.9218 59.0469C25.1725 59.2602 25.4526 59.3809 25.762 59.409C26.069 59.4348 26.3819 59.3797 26.7006 59.2438C27.0193 59.1079 27.317 58.9016 27.5935 58.6251C27.9029 58.3157 28.1232 57.9876 28.2544 57.6407C28.3857 57.2939 28.4232 56.9564 28.3669 56.6283C28.3107 56.3002 28.156 56.0096 27.9029 55.7565C27.638 55.4916 27.3392 55.3241 27.0064 55.2538C26.6713 55.1811 26.3198 55.2139 25.9518 55.3522C25.5839 55.4905 25.2171 55.7424 24.8515 56.108L24.2749 56.6845L23.5015 55.9111L24.0781 55.3346C24.364 55.0487 24.5632 54.7464 24.6757 54.4276C24.7905 54.1065 24.8151 53.7913 24.7495 53.482C24.6862 53.1703 24.5281 52.8879 24.2749 52.6347C24.0312 52.391 23.7652 52.2328 23.4769 52.1602C23.1887 52.0875 22.8957 52.0992 22.5981 52.1953C22.3028 52.2891 22.0227 52.4684 21.7579 52.7332C21.5095 52.9816 21.3208 53.2617 21.1919 53.5734C21.063 53.8804 21.0149 54.1886 21.0478 54.4979C21.0782 54.805 21.2071 55.0838 21.4345 55.3346L20.5908 56.1783C20.2275 55.7869 20.0107 55.3428 19.9404 54.846C19.8677 54.3468 19.924 53.8452 20.1091 53.3414C20.2966 52.8351 20.5978 52.3746 21.0126 51.9598C21.4579 51.5145 21.9301 51.2227 22.4293 51.0844C22.9262 50.9438 23.4066 50.9344 23.8707 51.0563C24.3347 51.1782 24.7366 51.409 25.0765 51.7489C25.4819 52.1543 25.721 52.6066 25.7936 53.1058C25.8686 53.6027 25.7795 54.0878 25.5264 54.5612L25.5827 54.6175C26.1123 54.2378 26.6608 54.0761 27.2279 54.1323C27.7927 54.1862 28.3036 54.4417 28.7606 54.8987C29.152 55.2901 29.3969 55.7483 29.4954 56.2732C29.5938 56.7935 29.5493 57.3255 29.3618 57.8692C29.1743 58.413 28.8474 58.918 28.381 59.3844ZM34.5998 53.1656C34.0701 53.6952 33.4749 54.0023 32.814 54.0866C32.1507 54.1687 31.4453 54.0327 30.6977 53.6788C29.9477 53.3226 29.1813 52.7531 28.3986 51.9703C27.6205 51.1922 27.0545 50.4294 26.7006 49.6818C26.3467 48.9295 26.2108 48.2217 26.2928 47.5584C26.3748 46.8905 26.6783 46.2941 27.2033 45.7691C27.7283 45.2441 28.3236 44.9418 28.9891 44.8621C29.6547 44.7777 30.3625 44.9137 31.1125 45.2699C31.8624 45.6214 32.6265 46.1862 33.4045 46.9643C34.1873 47.7471 34.7568 48.5135 35.1131 49.2634C35.4669 50.0111 35.6029 50.7165 35.5208 51.3797C35.4365 52.0406 35.1295 52.6359 34.5998 53.1656ZM33.8264 52.3922C34.3514 51.8672 34.5061 51.2063 34.2904 50.4095C34.0748 49.6126 33.4983 48.7455 32.5608 47.808C31.9374 47.1846 31.3398 46.7206 30.768 46.4159C30.1985 46.1089 29.6747 45.9648 29.1966 45.9835C28.7208 45.9999 28.3095 46.1816 27.9626 46.5284C27.4424 47.0487 27.2924 47.712 27.5127 48.5182C27.7306 49.322 28.3072 50.1915 29.2423 51.1266C29.8657 51.75 30.461 52.2141 31.0281 52.5187C31.5953 52.8234 32.1156 52.9664 32.589 52.9476C33.0647 52.9265 33.4772 52.7414 33.8264 52.3922ZM40.6604 44.2082L40.2808 43.8286C40.0183 43.5661 39.832 43.2719 39.7218 42.9462C39.6117 42.6157 39.5952 42.2806 39.6726 41.9408C39.7499 41.5962 39.9386 41.274 40.2386 40.974C40.5432 40.6693 40.8655 40.4807 41.2053 40.408C41.5428 40.333 41.8744 40.353 42.2002 40.4678C42.5236 40.5803 42.8166 40.7678 43.0791 41.0303L43.4587 41.4099C43.7212 41.6724 43.9087 41.9677 44.0212 42.2958C44.1337 42.6192 44.1524 42.952 44.0774 43.2942C44.0024 43.6317 43.815 43.9504 43.515 44.2504C43.2103 44.5551 42.888 44.7461 42.5482 44.8234C42.2061 44.8984 41.8721 44.8808 41.5463 44.7707C41.2182 44.6582 40.9229 44.4707 40.6604 44.2082ZM40.9979 43.1114L41.3776 43.4911C41.5955 43.709 41.8428 43.8532 42.1193 43.9235C42.3935 43.9914 42.6572 43.8989 42.9103 43.6458C43.1564 43.3997 43.2443 43.1407 43.174 42.8688C43.1037 42.5923 42.9595 42.345 42.7416 42.1271L42.3619 41.7474C42.1439 41.5295 41.9002 41.3841 41.6307 41.3115C41.3588 41.2365 41.0963 41.3256 40.8432 41.5787C40.5972 41.8248 40.5069 42.0884 40.5725 42.3696C40.6382 42.6462 40.78 42.8934 40.9979 43.1114ZM32.9546 43.6739L32.5749 43.2942C32.3124 43.0317 32.1261 42.7376 32.0159 42.4118C31.9058 42.0814 31.8894 41.7462 31.9667 41.4064C32.0441 41.0619 32.2327 40.7397 32.5327 40.4397C32.8374 40.135 33.1596 39.9463 33.4995 39.8737C33.8369 39.7987 34.1686 39.8186 34.4943 39.9334C34.8178 40.0459 35.1107 40.2334 35.3732 40.4959L35.7529 40.8756C36.0154 41.1381 36.2028 41.4334 36.3153 41.7615C36.4278 42.0849 36.4466 42.4177 36.3716 42.7599C36.2966 43.0973 36.1091 43.4161 35.8091 43.7161C35.5044 44.0207 35.1822 44.2117 34.8424 44.2891C34.5002 44.3641 34.1662 44.3465 33.8405 44.2363C33.5124 44.1239 33.2171 43.9364 32.9546 43.6739ZM33.2921 42.5771L33.6717 42.9567C33.8897 43.1747 34.1369 43.3188 34.4135 43.3891C34.6877 43.4571 34.9513 43.3645 35.2045 43.1114C35.4505 42.8653 35.5384 42.6064 35.4681 42.3345C35.3978 42.0579 35.2537 41.8107 35.0357 41.5927L34.656 41.2131C34.4381 40.9951 34.1944 40.8498 33.9248 40.7772C33.653 40.7022 33.3905 40.7912 33.1374 41.0443C32.8913 41.2904 32.8011 41.5541 32.8667 41.8353C32.9323 42.1118 33.0741 42.3591 33.2921 42.5771ZM38.6918 48.8767L36.4419 36.7274L37.2434 35.9258L39.4933 48.0752L38.6918 48.8767ZM51.488 36.3055C51.0005 36.793 50.4568 37.1047 49.8568 37.2406C49.2592 37.3742 48.6487 37.3355 48.0253 37.1246C47.4042 36.9113 46.8148 36.5258 46.257 35.968C45.6945 35.4055 45.3055 34.8126 45.0899 34.1892C44.8766 33.5635 44.8368 32.9518 44.9704 32.3541C45.1063 31.7542 45.418 31.2104 45.9055 30.723C46.3929 30.2355 46.9355 29.925 47.5331 29.7914C48.1331 29.6554 48.7448 29.6953 49.3682 29.9109C49.9939 30.1242 50.588 30.512 51.1505 31.0745C51.7083 31.6323 52.0927 32.2229 52.3036 32.8463C52.5169 33.4674 52.5555 34.0779 52.4196 34.6778C52.286 35.2755 51.9755 35.818 51.488 36.3055ZM50.7427 35.5602C51.113 35.1899 51.3228 34.7903 51.372 34.3615C51.4212 33.9326 51.3486 33.506 51.154 33.0818C50.9595 32.6576 50.6818 32.2651 50.3209 31.9042C49.96 31.5432 49.5662 31.2644 49.1397 31.0675C48.7131 30.8706 48.2843 30.7956 47.853 30.8425C47.4218 30.8894 47.021 31.098 46.6507 31.4682C46.2805 31.8385 46.0719 32.2393 46.025 32.6705C45.9781 33.1018 46.0531 33.5306 46.25 33.9572C46.4469 34.3837 46.7257 34.7775 47.0867 35.1384C47.4476 35.4993 47.8401 35.777 48.2643 35.9715C48.6885 36.1661 49.1151 36.2387 49.544 36.1895C49.9728 36.1403 50.3724 35.9305 50.7427 35.5602ZM52.0935 24.6755L52.7966 25.3786L49.8858 28.2894L49.1827 27.5863L52.0935 24.6755ZM55.4543 32.1142L49.3093 25.9692C48.9999 25.6599 48.8148 25.3294 48.7539 24.9779C48.6929 24.6263 48.7269 24.283 48.8558 23.9478C48.9847 23.6127 49.1781 23.3162 49.4359 23.0584C49.6398 22.8545 49.8226 22.7045 49.9843 22.6084C50.146 22.5124 50.2725 22.4467 50.3639 22.4116L50.842 23.3678C50.7858 23.3959 50.7096 23.4369 50.6135 23.4908C50.5198 23.5424 50.4131 23.6279 50.2936 23.7474C50.0194 24.0217 49.8905 24.2888 49.9069 24.549C49.9257 24.8068 50.0686 25.0693 50.3358 25.3364L56.2839 31.2846L55.4543 32.1142ZM55.6608 21.1082L56.3639 21.8113L53.4531 24.7221L52.75 24.019L55.6608 21.1082ZM59.0216 28.5469L52.8766 22.4019C52.5672 22.0926 52.3821 21.7621 52.3212 21.4106C52.2602 21.059 52.2942 20.7157 52.4231 20.3805C52.552 20.0454 52.7454 19.7489 53.0032 19.4911C53.207 19.2872 53.3899 19.1372 53.5516 19.0411C53.7133 18.9451 53.8398 18.8794 53.9312 18.8443L54.4093 19.8005C54.3531 19.8286 54.2769 19.8696 54.1808 19.9235C54.0871 19.9751 53.9804 20.0606 53.8609 20.1802C53.5867 20.4544 53.4578 20.7215 53.4742 20.9817C53.493 21.2395 53.6359 21.502 53.9031 21.7691L59.8512 27.7173L59.0216 28.5469Z" fill="white"/>
<rect x="83" y="35" width="102" height="24" rx="4" fill="#CDF7E2"/>
<path d="M116.445 41.8182L119.094 49.8324H119.199L121.844 41.8182H123.872L120.283 52H118.006L114.421 41.8182H116.445ZM126.538 52.1541C126.054 52.1541 125.618 52.0679 125.231 51.8956C124.846 51.7199 124.541 51.4614 124.316 51.12C124.094 50.7786 123.983 50.3577 123.983 49.8572C123.983 49.4264 124.062 49.0701 124.221 48.7884C124.381 48.5066 124.598 48.2812 124.873 48.1122C125.148 47.9432 125.458 47.8156 125.802 47.7294C126.15 47.6399 126.51 47.5753 126.881 47.5355C127.329 47.4891 127.692 47.4477 127.97 47.4112C128.248 47.3714 128.451 47.3118 128.577 47.2322C128.706 47.1494 128.77 47.0218 128.77 46.8494V46.8196C128.77 46.4451 128.659 46.1551 128.437 45.9496C128.215 45.7441 127.895 45.6413 127.478 45.6413C127.037 45.6413 126.687 45.7375 126.429 45.9297C126.174 46.1219 126.001 46.349 125.912 46.6108L124.231 46.3722C124.364 45.9081 124.583 45.5204 124.888 45.2088C125.193 44.8939 125.565 44.6586 126.006 44.5028C126.447 44.3438 126.934 44.2642 127.468 44.2642C127.836 44.2642 128.202 44.3073 128.567 44.3935C128.931 44.4796 129.264 44.6222 129.566 44.821C129.867 45.0166 130.109 45.2834 130.292 45.6214C130.477 45.9595 130.57 46.3821 130.57 46.8892V52H128.84V50.951H128.78C128.671 51.1631 128.517 51.362 128.318 51.5476C128.122 51.7299 127.876 51.8774 127.577 51.9901C127.282 52.0994 126.936 52.1541 126.538 52.1541ZM127.006 50.8317C127.367 50.8317 127.68 50.7604 127.945 50.6179C128.21 50.4721 128.414 50.2798 128.557 50.0412C128.702 49.8026 128.775 49.5424 128.775 49.2607V48.3608C128.719 48.4072 128.623 48.4503 128.487 48.4901C128.354 48.5298 128.205 48.5646 128.04 48.5945C127.874 48.6243 127.71 48.6508 127.547 48.674C127.385 48.6972 127.244 48.7171 127.125 48.7337C126.856 48.7701 126.616 48.8298 126.404 48.9126C126.192 48.9955 126.024 49.1115 125.902 49.2607C125.779 49.4065 125.718 49.5954 125.718 49.8274C125.718 50.1589 125.839 50.4091 126.081 50.5781C126.323 50.7472 126.631 50.8317 127.006 50.8317ZM134.18 41.8182V52H132.38V41.8182H134.18ZM140.897 48.7884V44.3636H142.697V52H140.952V50.6428H140.873C140.7 51.0703 140.417 51.42 140.022 51.6918C139.631 51.9635 139.149 52.0994 138.576 52.0994C138.075 52.0994 137.633 51.9884 137.248 51.7663C136.867 51.541 136.569 51.2145 136.353 50.7869C136.138 50.3561 136.03 49.8357 136.03 49.2259V44.3636H137.83V48.9474C137.83 49.4313 137.962 49.8158 138.228 50.1009C138.493 50.3859 138.841 50.5284 139.272 50.5284C139.537 50.5284 139.794 50.4638 140.042 50.3345C140.291 50.2053 140.495 50.013 140.654 49.7578C140.816 49.4993 140.897 49.1761 140.897 48.7884ZM147.928 52.1491C147.163 52.1491 146.502 51.9901 145.945 51.6719C145.391 51.3504 144.965 50.8963 144.667 50.3097C144.369 49.7197 144.22 49.0253 144.22 48.2266C144.22 47.4411 144.369 46.7517 144.667 46.1584C144.969 45.5618 145.39 45.0978 145.93 44.7663C146.47 44.4316 147.105 44.2642 147.834 44.2642C148.305 44.2642 148.749 44.3404 149.166 44.4929C149.587 44.642 149.959 44.8741 150.28 45.1889C150.605 45.5038 150.86 45.9048 151.046 46.392C151.231 46.8759 151.324 47.4527 151.324 48.1222V48.674H145.065V47.4609H149.599C149.596 47.1162 149.521 46.8097 149.375 46.5412C149.229 46.2694 149.026 46.0556 148.764 45.8999C148.505 45.7441 148.204 45.6662 147.859 45.6662C147.491 45.6662 147.168 45.7557 146.889 45.9347C146.611 46.1103 146.394 46.3423 146.238 46.6307C146.086 46.9157 146.008 47.2289 146.004 47.5703V48.6293C146.004 49.0734 146.086 49.4545 146.248 49.7727C146.41 50.0876 146.637 50.3295 146.929 50.4986C147.221 50.6643 147.562 50.7472 147.953 50.7472C148.215 50.7472 148.452 50.7107 148.664 50.6378C148.876 50.5616 149.06 50.4505 149.216 50.3047C149.372 50.1589 149.49 49.9782 149.569 49.7628L151.249 49.9517C151.143 50.3958 150.941 50.7836 150.643 51.1151C150.348 51.4432 149.97 51.6984 149.509 51.8807C149.049 52.0597 148.522 52.1491 147.928 52.1491Z" fill="#329D5D"/>
</svg>
