<svg width="132" height="32" viewBox="0 0 132 32" fill="none" xmlns="http://www.w3.org/2000/svg">
<rect x="0.5" y="0.5" width="131" height="31" rx="7.5" stroke="url(#paint0_linear_1203_37750)"/>
<path d="M46.9251 22V8.90909H51.3484C52.3754 8.90909 53.2148 9.09446 53.8668 9.4652C54.5231 9.83168 55.0089 10.3281 55.3242 10.9545C55.6396 11.581 55.7972 12.2798 55.7972 13.0511C55.7972 13.8224 55.6396 14.5234 55.3242 15.1541C55.0131 15.7848 54.5316 16.2876 53.8796 16.6626C53.2276 17.0334 52.3924 17.2188 51.3739 17.2188H48.2035V15.8125H51.3228C52.0259 15.8125 52.5906 15.6911 53.0167 15.4482C53.4428 15.2053 53.7518 14.8771 53.9435 14.4638C54.1396 14.0462 54.2376 13.5753 54.2376 13.0511C54.2376 12.527 54.1396 12.0582 53.9435 11.6449C53.7518 11.2315 53.4407 10.9077 53.0103 10.6733C52.5799 10.4347 52.0089 10.3153 51.2972 10.3153H48.5103V22H46.9251ZM58.1463 22V12.1818H59.6037V13.6648H59.706C59.8849 13.179 60.2088 12.7848 60.6776 12.4822C61.1463 12.1797 61.6747 12.0284 62.2628 12.0284C62.3736 12.0284 62.5121 12.0305 62.6783 12.0348C62.8445 12.0391 62.9702 12.0455 63.0554 12.054V13.5881C63.0043 13.5753 62.8871 13.5561 62.7038 13.5305C62.5249 13.5007 62.3352 13.4858 62.1349 13.4858C61.6577 13.4858 61.2315 13.5859 60.8565 13.7862C60.4858 13.9822 60.1918 14.255 59.9744 14.6044C59.7614 14.9496 59.6548 15.3437 59.6548 15.7869V22H58.1463ZM68.6612 22.2045C67.7152 22.2045 66.8991 21.9957 66.2131 21.5781C65.5312 21.1562 65.005 20.5682 64.6342 19.8139C64.2678 19.0554 64.0845 18.1733 64.0845 17.1676C64.0845 16.1619 64.2678 15.2756 64.6342 14.5085C65.005 13.7372 65.5206 13.1364 66.1811 12.706C66.8459 12.2713 67.6214 12.054 68.5078 12.054C69.0192 12.054 69.5241 12.1392 70.0227 12.3097C70.5213 12.4801 70.9751 12.7571 71.3842 13.1406C71.7933 13.5199 72.1193 14.0227 72.3622 14.6491C72.6051 15.2756 72.7266 16.0469 72.7266 16.9631V17.6023H65.1584V16.2983H71.1925C71.1925 15.7443 71.0817 15.25 70.8601 14.8153C70.6428 14.3807 70.3317 14.0376 69.9268 13.7862C69.5263 13.5348 69.0533 13.4091 68.5078 13.4091C67.907 13.4091 67.3871 13.5582 66.9482 13.8565C66.5135 14.1506 66.179 14.5341 65.9446 15.0071C65.7102 15.4801 65.593 15.9872 65.593 16.5284V17.3977C65.593 18.1392 65.7209 18.7678 65.9766 19.2834C66.2365 19.7947 66.5966 20.1847 67.0568 20.4531C67.517 20.7173 68.0518 20.8494 68.6612 20.8494C69.0575 20.8494 69.4155 20.794 69.7351 20.6832C70.0589 20.5682 70.3381 20.3977 70.5724 20.1719C70.8068 19.9418 70.9879 19.6562 71.1158 19.3153L72.5732 19.7244C72.4197 20.2188 72.1619 20.6534 71.7997 21.0284C71.4375 21.3991 70.9901 21.6889 70.4574 21.8977C69.9247 22.1023 69.326 22.2045 68.6612 22.2045ZM75.0213 22V12.1818H76.4787V13.7159H76.6065C76.8111 13.1918 77.1413 12.7848 77.5973 12.495C78.0533 12.201 78.6009 12.054 79.2401 12.054C79.8878 12.054 80.4268 12.201 80.8572 12.495C81.2919 12.7848 81.6307 13.1918 81.8736 13.7159H81.9759C82.2273 13.2088 82.6044 12.8061 83.1072 12.5078C83.6101 12.2053 84.2131 12.054 84.9162 12.054C85.794 12.054 86.5121 12.3288 87.0703 12.8786C87.6286 13.424 87.9077 14.2741 87.9077 15.429V22H86.3991V15.429C86.3991 14.7045 86.201 14.1868 85.8047 13.8757C85.4084 13.5646 84.9418 13.4091 84.4048 13.4091C83.7145 13.4091 83.1797 13.6179 82.8004 14.0355C82.4212 14.4489 82.2315 14.973 82.2315 15.608V22H80.6974V15.2756C80.6974 14.7173 80.5163 14.2678 80.1541 13.9268C79.7919 13.5817 79.3253 13.4091 78.7543 13.4091C78.3622 13.4091 77.9957 13.5135 77.6548 13.7223C77.3182 13.9311 77.0455 14.2209 76.8366 14.5916C76.6321 14.9581 76.5298 15.3821 76.5298 15.8636V22H75.0213ZM90.6658 22V12.1818H92.1744V22H90.6658ZM91.4329 10.5455C91.1388 10.5455 90.8853 10.4453 90.6722 10.245C90.4634 10.0447 90.359 9.80398 90.359 9.52273C90.359 9.24148 90.4634 9.00071 90.6722 8.80043C90.8853 8.60014 91.1388 8.5 91.4329 8.5C91.7269 8.5 91.9783 8.60014 92.1871 8.80043C92.4002 9.00071 92.5067 9.24148 92.5067 9.52273C92.5067 9.80398 92.4002 10.0447 92.1871 10.245C91.9783 10.4453 91.7269 10.5455 91.4329 10.5455ZM101.125 17.9858V12.1818H102.633V22H101.125V20.3381H101.023C100.792 20.8366 100.434 21.2607 99.9487 21.6101C99.4629 21.9553 98.8493 22.1278 98.1078 22.1278C97.4941 22.1278 96.9487 21.9936 96.4714 21.7251C95.9941 21.4524 95.6191 21.0433 95.3464 20.4979C95.0737 19.9482 94.9373 19.2557 94.9373 18.4205V12.1818H96.4458V18.3182C96.4458 19.0341 96.6461 19.6051 97.0467 20.0312C97.4515 20.4574 97.9672 20.6705 98.5936 20.6705C98.9686 20.6705 99.35 20.5746 99.7377 20.3828C100.13 20.1911 100.458 19.897 100.722 19.5007C100.991 19.1044 101.125 18.5994 101.125 17.9858ZM105.396 22V12.1818H106.854V13.7159H106.982C107.186 13.1918 107.516 12.7848 107.972 12.495C108.428 12.201 108.976 12.054 109.615 12.054C110.263 12.054 110.802 12.201 111.232 12.495C111.667 12.7848 112.006 13.1918 112.249 13.7159H112.351C112.602 13.2088 112.979 12.8061 113.482 12.5078C113.985 12.2053 114.588 12.054 115.291 12.054C116.169 12.054 116.887 12.3288 117.445 12.8786C118.004 13.424 118.283 14.2741 118.283 15.429V22H116.774V15.429C116.774 14.7045 116.576 14.1868 116.18 13.8757C115.783 13.5646 115.317 13.4091 114.78 13.4091C114.089 13.4091 113.555 13.6179 113.175 14.0355C112.796 14.4489 112.607 14.973 112.607 15.608V22H111.072V15.2756C111.072 14.7173 110.891 14.2678 110.529 13.9268C110.167 13.5817 109.7 13.4091 109.129 13.4091C108.737 13.4091 108.371 13.5135 108.03 13.7223C107.693 13.9311 107.42 14.2209 107.212 14.5916C107.007 14.9581 106.905 15.3821 106.905 15.8636V22H105.396Z" fill="url(#paint1_linear_1203_37750)"/>
<path d="M30.9161 10.5924C30.102 10.0904 29.0572 10.1693 28.3273 10.7884L26.4869 12.3219C26.4195 12.3778 26.3317 12.4026 26.2448 12.3902C26.1588 12.3778 26.0816 12.329 26.0328 12.2563L23.8599 8.99601H23.859C23.4448 8.37427 22.7459 8 21.9982 8C21.2505 8 20.5516 8.37427 20.1375 8.99601L17.9645 12.2563H17.9636C17.9148 12.329 17.8377 12.3778 17.7516 12.3902C17.6647 12.4026 17.5769 12.3778 17.5095 12.3219L15.6691 10.7884C14.9356 10.1773 13.8962 10.0984 13.0803 10.5924C12.2634 11.0855 11.8501 12.0425 12.0497 12.9755L13.8324 21.2949C14.1082 22.5579 15.2249 23.4599 16.5171 23.4652H27.4794C28.7716 23.4599 29.8882 22.5579 30.164 21.2949L31.9468 12.9755C32.1552 12.0416 31.7392 11.0802 30.9161 10.5924ZM30.5587 12.6784L28.776 20.9978C28.643 21.6081 28.1037 22.0435 27.4793 22.0462H16.517C15.8926 22.0435 15.3534 21.6081 15.2203 20.9978L13.4376 12.6784C13.3569 12.3361 13.5103 11.9822 13.8137 11.8066C13.9458 11.7277 14.0957 11.6851 14.25 11.6824C14.4381 11.6842 14.619 11.7543 14.76 11.8784L16.6013 13.4128C16.9782 13.7259 17.4696 13.8651 17.9547 13.7942C18.4399 13.7241 18.8727 13.451 19.1441 13.0438L21.317 9.7836H21.3179C21.4758 9.56542 21.7286 9.43594 21.9982 9.43594C22.2678 9.43594 22.5206 9.56543 22.6785 9.7836L24.8523 13.0438C25.1237 13.451 25.5565 13.7241 26.0417 13.7951C26.5268 13.8651 27.0191 13.7259 27.3951 13.4119L29.2355 11.8784H29.2364C29.5042 11.6549 29.8838 11.6265 30.1827 11.8066C30.4807 11.9866 30.6324 12.337 30.5587 12.6784Z" fill="#FFD700"/>
<path d="M23.7719 17.7888C23.7719 18.7688 22.9781 19.5626 21.9981 19.5626C21.018 19.5626 20.2242 18.7688 20.2242 17.7888C20.2242 16.8088 21.018 16.015 21.9981 16.015C22.9781 16.015 23.7719 16.8088 23.7719 17.7888Z" fill="#FFD700"/>
<defs>
<linearGradient id="paint0_linear_1203_37750" x1="0" y1="16" x2="132" y2="16" gradientUnits="userSpaceOnUse">
<stop stop-color="#FFD700"/>
<stop offset="1" stop-color="#FFFFFD"/>
</linearGradient>
<linearGradient id="paint1_linear_1203_37750" x1="45" y1="15" x2="120" y2="15" gradientUnits="userSpaceOnUse">
<stop stop-color="#FFD700"/>
<stop offset="1" stop-color="white"/>
</linearGradient>
</defs>
</svg>
