<svg width="53" height="55" viewBox="0 0 53 55" fill="none" xmlns="http://www.w3.org/2000/svg">
<path d="M41.5938 27.4773H12.4559C12.0784 27.4773 11.701 27.2508 11.4745 26.8734C11.2481 26.4959 11.2481 26.1185 11.4745 25.7411L26.0435 0.528409C26.27 0.150974 26.6474 0 27.0249 0C27.4023 0 27.7797 0.226461 28.0062 0.528409L42.5752 25.7411C42.8016 26.1185 42.8016 26.4959 42.5752 26.8734C42.3487 27.2508 41.9713 27.4773 41.5938 27.4773ZM14.4185 25.2126H39.6312L27.0249 3.39691L14.4185 25.2126Z" fill="white" fill-opacity="0.8"/>
<path d="M51.182 54.2001H28.4604C27.8565 54.2001 27.3281 53.6716 27.3281 53.0678V30.3462C27.3281 29.7423 27.8565 29.2139 28.4604 29.2139H51.182C51.7859 29.2139 52.3143 29.7423 52.3143 30.3462V53.0678C52.3143 53.6716 51.7859 54.2001 51.182 54.2001ZM29.5927 51.9354H50.0497V31.4785H29.5927V51.9354Z" fill="white" fill-opacity="0.8"/>
<path d="M12.4554 54.1246C5.58604 54.1246 0 48.5385 0 41.6692C0 34.7999 5.58604 29.2139 12.4554 29.2139C19.3247 29.2139 24.9107 34.7999 24.9107 41.6692C24.9107 48.5385 19.3247 54.1246 12.4554 54.1246ZM12.4554 31.4785C6.86931 31.4785 2.26461 36.0832 2.26461 41.6692C2.26461 47.2553 6.86931 51.86 12.4554 51.86C18.0414 51.86 22.6461 47.2553 22.6461 41.6692C22.6461 36.0832 18.0414 31.4785 12.4554 31.4785Z" fill="white" fill-opacity="0.8"/>
</svg>
