<svg width="68" height="61" viewBox="0 0 68 61" fill="none" xmlns="http://www.w3.org/2000/svg">
<path d="M39.7365 36.9157H39.7298C38.913 36.9157 38.1427 37.2328 37.5617 37.8136L31.957 43.4109L30.4065 41.899C29.1912 40.7108 27.2455 40.7408 26.0635 41.9591C24.8882 43.1807 24.9147 45.1366 26.1233 46.3215L29.842 49.9496C30.4363 50.5304 31.21 50.8174 31.9835 50.8174C32.7704 50.8174 33.5541 50.517 34.1484 49.9229L41.8946 42.1927C42.4756 41.6119 42.7977 40.8342 42.801 40.0098C42.8043 39.1854 42.4856 38.4077 41.9078 37.8236C41.3301 37.2361 40.5598 36.9157 39.7397 36.9124L39.7365 36.9157ZM40.3939 40.6773L32.6477 48.4075C32.2858 48.7713 31.6914 48.7746 31.3229 48.4141L27.6075 44.7894C27.2356 44.4222 27.229 43.8181 27.5909 43.4409C27.9528 43.0671 28.5537 43.0604 28.9256 43.4243L31.9736 46.3982L39.0557 39.3256C39.235 39.1453 39.4741 39.0486 39.7264 39.0486H39.7297C39.9821 39.0486 40.2178 39.1487 40.3938 39.3289C40.5731 39.5092 40.6694 39.7495 40.6694 40.0031C40.6694 40.2568 40.5697 40.4971 40.3905 40.674L40.3939 40.6773ZM59.3461 16.7721C60.8668 15.3402 61.8197 13.2976 61.8197 11.0312C61.8197 6.71216 58.36 3.20086 54.1101 3.20086C49.8568 3.20086 46.4037 6.71216 46.4037 11.0312C46.4037 13.2875 47.3467 15.3201 48.8541 16.752C47.8813 16.8221 46.9416 17.0424 46.0418 17.4062C44.4481 15.3335 42.0508 13.9283 39.3282 13.688C40.8655 12.2461 41.8317 10.1833 41.8317 7.89373C41.8317 3.5413 38.3454 0 34.059 0C29.7725 0 26.2863 3.5413 26.2863 7.89373C26.2863 10.1834 27.2524 12.2462 28.7897 13.688C26.0538 13.9283 23.64 15.3502 22.0463 17.4462C21.1597 17.0791 20.2168 16.8488 19.2539 16.7653C20.7679 15.3334 21.7175 13.2941 21.7175 11.0345C21.7175 6.71546 18.2578 3.20416 14.0078 3.20416C9.75456 3.20416 6.30148 6.71546 6.30148 11.0345C6.30148 13.2941 7.25109 15.3334 8.76509 16.7653C3.87102 17.1825 0 21.378 0 26.4446V31.5614C0 32.1522 0.474796 32.6294 1.06249 32.6294H21.1605C18.5474 35.64 16.9637 39.5752 16.9637 43.8707C16.9637 53.3167 24.6069 61 34 61C43.3931 61 51.0397 53.3165 51.0397 43.8707C51.0397 39.5717 49.456 35.6365 46.8429 32.6294H66.9375C67.5252 32.6294 68 32.1522 68 31.5614V26.4446C68 21.418 64.1916 17.249 59.3471 16.7756L59.3461 16.7721ZM48.5283 11.0312C48.5283 7.89038 51.0317 5.337 54.1096 5.337C57.1875 5.337 59.6943 7.89038 59.6943 11.0312C59.6943 14.172 57.1875 16.7254 54.1096 16.7254C51.0284 16.7254 48.5283 14.172 48.5283 11.0312ZM28.4141 7.89038C28.4141 4.71624 30.9475 2.13279 34.0619 2.13279C37.1763 2.13279 39.7096 4.71615 39.7096 7.89038C39.7096 11.0645 37.1762 13.6446 34.0619 13.6446C30.9474 13.6446 28.4141 11.0613 28.4141 7.89038ZM29.5463 15.7808H38.5604C42.6278 15.8175 45.9414 19.2186 45.9414 23.3641V30.4901H44.6199C43.7534 29.7925 42.8203 29.1817 41.8275 28.661V25.0263C41.8275 24.4355 41.3528 23.9582 40.7651 23.9582C40.1774 23.9582 39.7026 24.4355 39.7026 25.0263V27.7299C37.9162 27.0924 35.9971 26.7419 33.9951 26.7419C32.0394 26.7419 30.1635 27.0757 28.4137 27.6865V25.0263C28.4137 24.4356 27.9389 23.9583 27.3512 23.9583C26.7635 23.9583 26.2887 24.4356 26.2887 25.0263V28.5977C25.2528 29.1284 24.2766 29.7626 23.3735 30.4902H22.1715V23.3642C22.1715 19.2187 25.4818 15.8176 29.5426 15.7809L29.5463 15.7808ZM8.42578 11.0312C8.42578 7.89038 10.9292 5.337 14.0071 5.337C17.085 5.337 19.5918 7.89038 19.5918 11.0312C19.5918 14.172 17.085 16.7254 14.0071 16.7254C10.9259 16.7254 8.42578 14.172 8.42578 11.0312ZM2.12387 26.4413C2.12387 22.2958 5.43415 18.8948 9.49489 18.8614H18.5124C19.3491 18.868 20.1593 19.0182 20.9329 19.2986C20.3685 20.5369 20.0497 21.9154 20.0497 23.3639V30.4899H8.42526V28.6375C8.42526 28.0467 7.95047 27.5694 7.36278 27.5694C6.77509 27.5694 6.30029 28.0467 6.30029 28.6375V30.4899H2.12336L2.12387 26.4413ZM33.9985 58.8603C25.7775 58.8603 19.0871 52.1348 19.0871 43.8671C19.0871 35.5996 25.7775 28.8774 33.9985 28.8774C42.2195 28.8774 48.9132 35.6029 48.9132 43.8671C48.9132 52.1314 42.2229 58.8603 33.9985 58.8603ZM65.8731 30.4897H61.819V28.5072C61.819 27.9164 61.3443 27.4391 60.7566 27.4391C60.1689 27.4391 59.6941 27.9164 59.6941 28.5072V30.4897H48.0662V23.3637C48.0662 21.9019 47.7408 20.51 47.1664 19.2617C47.9102 19.0047 48.6838 18.8678 49.4774 18.8611H54.1058H54.1091H54.1125H58.4952C62.5625 18.8945 65.8728 22.2956 65.8728 26.4411L65.8731 30.4897Z" fill="white" fill-opacity="0.8"/>
</svg>
