<svg width="44" height="50" viewBox="0 0 44 50" fill="none" xmlns="http://www.w3.org/2000/svg">
<path d="M16.3003 14.4078C16.3003 16.5817 13.041 16.5817 13.041 14.4078C13.041 12.2339 16.3003 12.2339 16.3003 14.4078Z" fill="white" fill-opacity="0.8"/>
<path d="M30.9682 14.4078C30.9682 16.5817 27.709 16.5817 27.709 14.4078C27.709 12.2339 30.9682 12.2339 30.9682 14.4078Z" fill="white" fill-opacity="0.8"/>
<path d="M9.78319 28.2594H20.3758V38.852H12.072C9.58616 38.852 7.27225 40.0901 5.89725 42.159L2.72714 46.9078C2.48206 47.2675 2.40248 47.7067 2.48206 48.13C2.56481 48.5533 2.81626 48.9194 3.17592 49.1644C3.53558 49.4095 3.97482 49.4891 4.39814 49.4095C4.82146 49.3267 5.19704 49.0753 5.43255 48.7156L8.60267 43.9668C9.37611 42.8019 10.6716 42.1081 12.0656 42.1081H31.9398C33.3338 42.1081 34.6293 42.8019 35.4027 43.9668L38.5729 48.7156C38.8179 49.0753 39.184 49.3267 39.6073 49.4095C40.0306 49.4986 40.4698 49.4095 40.8295 49.1644C41.1892 48.9193 41.4406 48.5533 41.5234 48.13C41.6061 47.7067 41.5234 47.2675 41.2783 46.9078L38.1082 42.159C36.73 40.0901 34.4161 38.852 31.9334 38.852H23.6296V28.2594H34.2222C39.6172 28.2594 44 23.8766 44 18.4816V10.3334C44 4.93847 39.6172 0.555664 34.2222 0.555664H9.77778C4.38281 0.555664 0 4.93847 0 10.3334V18.4816C0 23.8766 4.38281 28.2594 9.77778 28.2594H9.78319ZM3.26467 10.3334C3.26467 6.73995 6.18969 3.81492 9.78319 3.81492H34.2276C37.8211 3.81492 40.7461 6.73995 40.7461 10.3334V18.4816C40.7461 22.0751 37.8211 25.0001 34.2276 25.0001H9.78319C6.18969 25.0001 3.26467 22.0751 3.26467 18.4816V10.3334Z" fill="white" fill-opacity="0.8"/>
</svg>
