<svg width="217" height="51" viewBox="0 0 217 51" fill="none" xmlns="http://www.w3.org/2000/svg">
<path d="M20.4336 15.4583V22.9583H0V15.4583H20.4336ZM4.26046 47.4583V13.8333C4.26046 11.3611 4.72235 9.3125 5.64614 7.6875C6.56993 6.04861 7.8522 4.82639 9.49296 4.02084C11.1337 3.20139 13.0296 2.79167 15.1805 2.79167C16.5868 2.79167 17.9105 2.90278 19.1514 3.125C20.4061 3.33334 21.3368 3.52084 21.9434 3.6875L20.3302 11.1458C19.958 11.0208 19.503 10.9167 18.9652 10.8333C18.4413 10.75 17.9449 10.7083 17.4761 10.7083C16.2904 10.7083 15.4769 10.9722 15.0357 11.5C14.5945 12.0278 14.3739 12.75 14.3739 13.6667V47.4583H4.26046Z" fill="white" fill-opacity="0.8"/>
<path d="M25.299 47.4583V15.4583H35.4125V47.4583H25.299ZM30.3661 11.7292C28.9459 11.7292 27.7257 11.2569 26.7054 10.3125C25.6851 9.35417 25.175 8.20139 25.175 6.85417C25.175 5.52083 25.6851 4.38194 26.7054 3.4375C27.7257 2.47917 28.9459 2 30.3661 2C31.8 2 33.0203 2.47917 34.0268 3.4375C35.0471 4.38194 35.5572 5.52083 35.5572 6.85417C35.5572 8.20139 35.0471 9.35417 34.0268 10.3125C33.0203 11.2569 31.8 11.7292 30.3661 11.7292Z" fill="white" fill-opacity="0.8"/>
<path d="M51.9631 29.2083V47.4583H41.8497V15.4583H51.4667V21.3333H51.8183C52.5215 19.375 53.721 17.8403 55.417 16.7292C57.1129 15.6042 59.1328 15.0417 61.4767 15.0417C63.7104 15.0417 65.6476 15.5486 67.2883 16.5625C68.9429 17.5625 70.2251 18.9653 71.1351 20.7708C72.0589 22.5625 72.5139 24.6597 72.5001 27.0625V47.4583H62.3867V29.0625C62.4005 27.2847 61.9524 25.8958 61.0424 24.8958C60.1462 23.8958 58.8984 23.3958 57.299 23.3958C56.2373 23.3958 55.2998 23.6319 54.4863 24.1042C53.6866 24.5625 53.0661 25.2222 52.6249 26.0833C52.1975 26.9444 51.9769 27.9861 51.9631 29.2083Z" fill="white" fill-opacity="0.8"/>
<path d="M87.7168 48C85.69 48 83.8907 47.6597 82.3188 46.9792C80.7608 46.2847 79.5268 45.2431 78.6168 43.8542C77.7206 42.4514 77.2725 40.6944 77.2725 38.5833C77.2725 36.8056 77.5827 35.3056 78.2032 34.0833C78.8236 32.8611 79.6785 31.8681 80.7677 31.1042C81.8569 30.3403 83.1116 29.7639 84.5318 29.375C85.9519 28.9722 87.4686 28.7014 89.0818 28.5625C90.888 28.3958 92.3426 28.2222 93.4457 28.0417C94.5487 27.8472 95.3484 27.5764 95.8448 27.2292C96.3549 26.8681 96.61 26.3611 96.61 25.7083V25.6042C96.61 24.5347 96.2446 23.7083 95.5138 23.125C94.7831 22.5417 93.7973 22.25 92.5563 22.25C91.2189 22.25 90.1435 22.5417 89.33 23.125C88.5165 23.7083 87.9995 24.5139 87.7788 25.5417L78.4513 25.2083C78.7271 23.2639 79.4372 21.5278 80.5816 20C81.7398 18.4583 83.3254 17.25 85.3384 16.375C87.3652 15.4861 89.7988 15.0417 92.6391 15.0417C94.6659 15.0417 96.5342 15.2847 98.2438 15.7708C99.9535 16.2431 101.443 16.9375 102.711 17.8542C103.98 18.7569 104.959 19.8681 105.648 21.1875C106.351 22.5069 106.703 24.0139 106.703 25.7083V47.4583H97.1891V43H96.9409C96.3756 44.0833 95.6517 45 94.7693 45.75C93.9007 46.5 92.8735 47.0625 91.6877 47.4375C90.5157 47.8125 89.1921 48 87.7168 48ZM90.8398 41.3333C91.929 41.3333 92.9079 41.1111 93.7766 40.6667C94.659 40.2222 95.3622 39.6111 95.8861 38.8333C96.4101 38.0417 96.672 37.125 96.672 36.0833V33.0417C96.3825 33.1944 96.0309 33.3333 95.6173 33.4583C95.2174 33.5833 94.7762 33.7014 94.2936 33.8125C93.811 33.9236 93.3147 34.0208 92.8045 34.1042C92.2944 34.1875 91.8049 34.2639 91.3361 34.3333C90.3848 34.4861 89.5713 34.7222 88.8957 35.0417C88.2338 35.3611 87.7237 35.7778 87.3652 36.2917C87.0205 36.7917 86.8482 37.3889 86.8482 38.0833C86.8482 39.1389 87.2204 39.9444 87.965 40.5C88.7233 41.0556 89.6816 41.3333 90.8398 41.3333Z" fill="white" fill-opacity="0.8"/>
<path d="M123 4.79167V47.4583H112.887V4.79167H123Z" fill="white" fill-opacity="0.8"/>
<path d="M217 4L200.636 47H187L203.845 4H217Z" fill="#2B3EFA"/>
<g filter="url(#filter0_d_16_359)">
<path d="M171 4L187.364 47H201L184.636 4H171Z" fill="#2B3EFA"/>
</g>
<path d="M144 4H166V14.75H144V4Z" fill="#2B3EFA"/>
<path d="M144 36.25H166V47H144V36.25Z" fill="#2B3EFA"/>
<g filter="url(#filter1_d_16_359)">
<path d="M134 14.75L144 4V47L134 36.25V14.75Z" fill="#2B3EFA"/>
</g>
<defs>
<filter id="filter0_d_16_359" x="169" y="0" width="38" height="51" filterUnits="userSpaceOnUse" color-interpolation-filters="sRGB">
<feFlood flood-opacity="0" result="BackgroundImageFix"/>
<feColorMatrix in="SourceAlpha" type="matrix" values="0 0 0 0 0 0 0 0 0 0 0 0 0 0 0 0 0 0 127 0" result="hardAlpha"/>
<feOffset dx="2"/>
<feGaussianBlur stdDeviation="2"/>
<feComposite in2="hardAlpha" operator="out"/>
<feColorMatrix type="matrix" values="0 0 0 0 0 0 0 0 0 0 0 0 0 0 0 0 0 0 0.25 0"/>
<feBlend mode="normal" in2="BackgroundImageFix" result="effect1_dropShadow_16_359"/>
<feBlend mode="normal" in="SourceGraphic" in2="effect1_dropShadow_16_359" result="shape"/>
</filter>
<filter id="filter1_d_16_359" x="132" y="0" width="18" height="51" filterUnits="userSpaceOnUse" color-interpolation-filters="sRGB">
<feFlood flood-opacity="0" result="BackgroundImageFix"/>
<feColorMatrix in="SourceAlpha" type="matrix" values="0 0 0 0 0 0 0 0 0 0 0 0 0 0 0 0 0 0 127 0" result="hardAlpha"/>
<feOffset dx="2"/>
<feGaussianBlur stdDeviation="2"/>
<feComposite in2="hardAlpha" operator="out"/>
<feColorMatrix type="matrix" values="0 0 0 0 0 0 0 0 0 0 0 0 0 0 0 0 0 0 0.25 0"/>
<feBlend mode="normal" in2="BackgroundImageFix" result="effect1_dropShadow_16_359"/>
<feBlend mode="normal" in="SourceGraphic" in2="effect1_dropShadow_16_359" result="shape"/>
</filter>
</defs>
</svg>
