<svg width="102" height="27" viewBox="0 0 102 27" fill="none" xmlns="http://www.w3.org/2000/svg">
<g filter="url(#filter0_d_304_1237)">
<path d="M71.6202 9.528L76.8163 18.528H66.424L71.6202 9.528Z" fill="white"/>
<path d="M71.6202 9.528L66.4243 0.527999L76.8166 0.528L71.6202 9.528Z" fill="white"/>
<path d="M87.924 18.528L78.424 0.528001L97.424 0.528003L87.924 18.528Z" fill="white"/>
<path d="M65.6202 0.528L70.8163 9.528H60.424L65.6202 0.528Z" fill="white"/>
<path d="M65.6204 18.528L60.424 9.528H70.8163L65.6204 18.528Z" fill="white"/>
<path d="M10.768 7.536H8.32V18.528H5.56V7.536H4V5.304H5.56V4.368C5.56 2.848 5.96 1.744 6.76 1.056C7.576 0.352 8.848 0 10.576 0V2.28C9.744 2.28 9.16 2.44 8.824 2.76C8.488 3.064 8.32 3.6 8.32 4.368V5.304H10.768V7.536Z" fill="white"/>
<path d="M14.5848 3.552C14.0888 3.552 13.6728 3.384 13.3368 3.048C13.0008 2.712 12.8328 2.296 12.8328 1.8C12.8328 1.304 13.0008 0.888 13.3368 0.552C13.6728 0.216 14.0888 0.0479994 14.5848 0.0479994C15.0648 0.0479994 15.4727 0.216 15.8088 0.552C16.1448 0.888 16.3127 1.304 16.3127 1.8C16.3127 2.296 16.1448 2.712 15.8088 3.048C15.4727 3.384 15.0648 3.552 14.5848 3.552ZM15.9288 5.304V18.528H13.1927V5.304H15.9288Z" fill="white"/>
<path d="M26.1929 5.088C27.2329 5.088 28.1609 5.304 28.9769 5.736C29.8089 6.168 30.4569 6.808 30.9209 7.656C31.3849 8.504 31.6169 9.528 31.6169 10.728V18.528H28.9049V11.136C28.9049 9.952 28.6089 9.048 28.0169 8.424C27.4249 7.784 26.6169 7.464 25.5929 7.464C24.5689 7.464 23.7529 7.784 23.1449 8.424C22.5529 9.048 22.2569 9.952 22.2569 11.136V18.528H19.5209V5.304H22.2569V6.816C22.7049 6.272 23.2729 5.848 23.9609 5.544C24.6649 5.24 25.4089 5.088 26.1929 5.088Z" fill="white"/>
<path d="M34.1948 11.856C34.1948 10.528 34.4668 9.352 35.0108 8.328C35.5708 7.304 36.3228 6.512 37.2668 5.952C38.2268 5.376 39.2828 5.088 40.4348 5.088C41.4748 5.088 42.3788 5.296 43.1468 5.712C43.9308 6.112 44.5548 6.616 45.0188 7.224V5.304H47.7788V18.528H45.0188V16.56C44.5548 17.184 43.9228 17.704 43.1228 18.12C42.3228 18.536 41.4108 18.744 40.3868 18.744C39.2508 18.744 38.2108 18.456 37.2668 17.88C36.3228 17.288 35.5708 16.472 35.0108 15.432C34.4668 14.376 34.1948 13.184 34.1948 11.856ZM45.0188 11.904C45.0188 10.992 44.8268 10.2 44.4428 9.528C44.0748 8.856 43.5868 8.344 42.9788 7.992C42.3708 7.64 41.7148 7.464 41.0108 7.464C40.3068 7.464 39.6508 7.64 39.0428 7.992C38.4348 8.328 37.9388 8.832 37.5548 9.504C37.1868 10.16 37.0028 10.944 37.0028 11.856C37.0028 12.768 37.1868 13.568 37.5548 14.256C37.9388 14.944 38.4348 15.472 39.0428 15.84C39.6668 16.192 40.3228 16.368 41.0108 16.368C41.7148 16.368 42.3708 16.192 42.9788 15.84C43.5868 15.488 44.0748 14.976 44.4428 14.304C44.8268 13.616 45.0188 12.816 45.0188 11.904Z" fill="white"/>
<path d="M54.1084 0.768V18.528H51.3724V0.768H54.1084Z" fill="white"/>
</g>
<defs>
<filter id="filter0_d_304_1237" x="0" y="0" width="101.424" height="26.7441" filterUnits="userSpaceOnUse" color-interpolation-filters="sRGB">
<feFlood flood-opacity="0" result="BackgroundImageFix"/>
<feColorMatrix in="SourceAlpha" type="matrix" values="0 0 0 0 0 0 0 0 0 0 0 0 0 0 0 0 0 0 127 0" result="hardAlpha"/>
<feOffset dy="4"/>
<feGaussianBlur stdDeviation="2"/>
<feComposite in2="hardAlpha" operator="out"/>
<feColorMatrix type="matrix" values="0 0 0 0 0 0 0 0 0 0 0 0 0 0 0 0 0 0 0.25 0"/>
<feBlend mode="normal" in2="BackgroundImageFix" result="effect1_dropShadow_304_1237"/>
<feBlend mode="normal" in="SourceGraphic" in2="effect1_dropShadow_304_1237" result="shape"/>
</filter>
</defs>
</svg>
