<svg width="4192" height="800" viewBox="0 0 4192 800" fill="none" xmlns="http://www.w3.org/2000/svg">
<g clip-path="url(#clip0_931_1298)">
<path d="M1286.63 41.4853L1376.86 224.314C1383.14 237.03 1395.27 245.841 1409.3 247.877L1611.07 277.197C1646.42 282.336 1660.52 325.757 1634.95 350.672L1488.95 492.983C1478.81 502.879 1474.17 517.147 1476.57 531.114L1511.03 732.065C1517.07 767.259 1480.13 794.093 1448.52 777.489L1268.06 682.62C1255.51 676.028 1240.51 676.028 1227.96 682.62L1047.5 777.489C1015.89 794.109 978.949 767.259 984.989 732.065L1019.45 531.114C1021.85 517.147 1017.21 502.879 1007.07 492.983L861.068 350.672C835.503 325.741 849.604 282.32 884.948 277.197L1086.72 247.877C1100.75 245.841 1112.88 237.03 1119.16 224.314L1209.39 41.4853C1225.17 9.46193 1270.83 9.46193 1286.63 41.4853Z" fill="#ED8A19"/>
</g>
<path d="M438.621 41.0175L528.851 223.846C535.125 236.562 547.257 245.373 561.291 247.409L763.06 276.729C798.405 281.869 812.506 325.29 786.94 350.204L640.941 492.515C630.795 502.411 626.156 516.679 628.559 530.646L663.019 731.597C669.059 766.791 632.113 793.625 600.507 777.021L420.048 682.152C407.499 675.561 392.497 675.561 379.948 682.152L199.489 777.021C167.883 793.642 130.937 766.791 136.978 731.597L171.437 530.646C173.84 516.679 169.201 502.411 159.055 492.515L13.0562 350.204C-12.5091 325.273 1.59183 281.852 36.936 276.729L238.705 247.409C252.739 245.373 264.871 236.562 271.145 223.846L361.375 41.0175C377.161 8.99416 422.818 8.99416 438.621 41.0175Z" fill="#ED8A19"/>
<path d="M2134.62 41.0175L2224.85 223.846C2231.13 236.562 2243.26 245.373 2257.29 247.409L2459.06 276.729C2494.4 281.869 2508.51 325.29 2482.94 350.204L2336.94 492.515C2326.8 502.411 2322.16 516.679 2324.56 530.646L2359.02 731.597C2365.06 766.791 2328.11 793.625 2296.51 777.021L2116.05 682.152C2103.5 675.561 2088.5 675.561 2075.95 682.152L1895.49 777.021C1863.88 793.642 1826.94 766.791 1832.98 731.597L1867.44 530.646C1869.84 516.679 1865.2 502.411 1855.06 492.515L1709.06 350.204C1683.49 325.273 1697.59 281.852 1732.94 276.729L1934.7 247.409C1948.74 245.373 1960.87 236.562 1967.15 223.846L2057.37 41.0175C2073.16 8.99416 2118.82 8.99416 2134.62 41.0175Z" fill="#ED8A19"/>
<path d="M2982.62 41.0175L3072.85 223.846C3079.13 236.562 3091.26 245.373 3105.29 247.409L3307.06 276.729C3342.4 281.869 3356.51 325.29 3330.94 350.204L3184.94 492.515C3174.8 502.411 3170.16 516.679 3172.56 530.646L3207.02 731.597C3213.06 766.791 3176.11 793.625 3144.51 777.021L2964.05 682.152C2951.5 675.561 2936.5 675.561 2923.95 682.152L2743.49 777.021C2711.88 793.642 2674.94 766.791 2680.98 731.597L2715.44 530.646C2717.84 516.679 2713.2 502.411 2703.06 492.515L2557.06 350.204C2531.49 325.273 2545.59 281.852 2580.94 276.729L2782.7 247.409C2796.74 245.373 2808.87 236.562 2815.15 223.846L2905.37 41.0175C2921.16 8.99416 2966.82 8.99416 2982.62 41.0175Z" fill="#ED8A19"/>
<path d="M3830.61 40.5497L3920.84 223.378C3927.11 236.094 3939.25 244.905 3953.28 246.941L4155.05 276.261C4190.39 281.401 4204.49 324.822 4178.93 349.736L4032.93 492.047C4022.78 501.943 4018.14 516.211 4020.55 530.178L4055.01 731.13C4061.05 766.324 4024.1 793.157 3992.5 776.553L3812.04 681.685C3799.49 675.093 3784.49 675.093 3771.94 681.685L3591.48 776.553C3559.87 793.174 3522.93 766.324 3528.97 731.13L3563.43 530.178C3565.83 516.211 3561.19 501.943 3551.04 492.047L3405.04 349.736C3379.48 324.805 3393.58 281.384 3428.92 276.261L3630.69 246.941C3644.73 244.905 3656.86 236.094 3663.13 223.378L3753.36 40.5497C3769.15 8.52639 3814.81 8.52639 3830.61 40.5497Z" fill="#ED8A19"/>
<defs>
<clipPath id="clip0_931_1298">
<rect width="800" height="800" fill="white" transform="translate(848)"/>
</clipPath>
</defs>
</svg>
