<svg width="402" height="279" viewBox="0 0 402 279" fill="none" xmlns="http://www.w3.org/2000/svg">
<path d="M314.544 222.179C313.364 214.228 313.053 206.172 313.615 198.154L314.544 184.883C309.421 195.08 310.579 208.501 314.544 222.179Z" fill="#CACACA"/>
<path d="M318.539 224.399C317.971 219.655 317.821 214.869 318.092 210.098L318.539 202.199C316.074 208.269 316.631 216.257 318.539 224.399Z" fill="#CACACA"/>
<path d="M336.295 234.168V238.608C336.293 238.961 336.152 239.298 335.903 239.548C335.653 239.797 335.316 239.938 334.963 239.94H332.744C332.685 239.94 332.628 239.951 332.574 239.973C332.52 239.996 332.471 240.028 332.429 240.07C332.388 240.111 332.355 240.16 332.333 240.214C332.311 240.268 332.3 240.326 332.3 240.384V276.792C332.298 277.145 332.157 277.482 331.908 277.732C331.659 277.981 331.321 278.122 330.968 278.124H303.894C303.541 278.124 303.202 277.983 302.952 277.733C302.703 277.484 302.562 277.145 302.562 276.792V240.384C302.562 240.266 302.515 240.154 302.432 240.07C302.348 239.987 302.236 239.94 302.118 239.94H299.455C299.102 239.94 298.764 239.799 298.514 239.55C298.264 239.3 298.124 238.961 298.124 238.608V234.168C298.123 233.993 298.158 233.82 298.224 233.658C298.291 233.496 298.389 233.349 298.513 233.226C298.637 233.102 298.784 233.004 298.945 232.937C299.107 232.87 299.28 232.836 299.455 232.836H334.963C335.316 232.837 335.654 232.978 335.903 233.227C336.153 233.477 336.293 233.815 336.295 234.168Z" fill="#F2F2F2"/>
<path d="M332.34 240.872H302.602V242.204H332.34V240.872Z" fill="#E6E6E6"/>
<path d="M332.3 260.473C322.349 264.592 312.289 264.637 302.118 260.473V251.089C311.91 247.799 322.508 247.799 332.3 251.089V260.473Z" fill="#E6E6E6"/>
<path d="M189.39 111.169C198.311 111.169 205.544 103.934 205.544 95.009C205.544 86.0843 198.311 78.8494 189.39 78.8494C180.468 78.8494 173.235 86.0843 173.235 95.009C173.235 103.934 180.468 111.169 189.39 111.169Z" fill="#131317"/>
<path d="M193.89 79.2942C196.686 79.2946 199.433 80.0206 201.864 81.4014C204.296 82.7822 206.327 84.7704 207.76 87.1717C209.193 89.573 209.979 92.3051 210.04 95.1011C210.102 97.8971 209.437 100.661 208.11 103.123C209.511 101.37 210.531 99.3446 211.106 97.1756C211.681 95.0065 211.797 92.7415 211.448 90.5248C211.1 88.3081 210.293 86.1884 209.08 84.3008C207.867 82.4131 206.275 80.799 204.404 79.5611C202.533 78.3233 200.424 77.4889 198.213 77.1111C196.002 76.7334 193.736 76.8206 191.561 77.3672C189.385 77.9138 187.347 78.9078 185.577 80.2858C183.806 81.6638 182.342 83.3956 181.278 85.3709C182.788 83.4744 184.706 81.9431 186.89 80.891C189.073 79.8389 191.466 79.2931 193.89 79.2942Z" fill="#131317"/>
<path d="M159.203 94.9748C185.41 94.9748 206.656 73.7223 206.656 47.5059C206.656 21.2895 185.41 0.0369873 159.203 0.0369873C132.995 0.0369873 111.75 21.2895 111.75 47.5059C111.75 73.7223 132.995 94.9748 159.203 94.9748Z" fill="#131317"/>
<path d="M121.96 18.0536C130.137 8.85493 141.566 3.19386 153.836 2.26523C166.106 1.3366 178.257 5.21306 187.724 13.0765C187.336 12.7075 186.952 12.3355 186.549 11.9769C177.142 3.6188 164.802 -0.660133 152.242 0.0809749C139.682 0.822083 127.93 6.52255 119.571 15.929C111.212 25.3355 106.929 37.6778 107.664 50.2423C108.4 62.8068 114.093 74.5648 123.493 82.931C123.896 83.2896 124.31 83.6274 124.722 83.9697C115.807 75.4858 110.535 63.8687 110.019 51.5702C109.504 39.2718 113.786 27.2541 121.96 18.0536Z" fill="#131317"/>
<path d="M158.801 94.5725C175.68 94.5725 189.364 80.8845 189.364 63.9993C189.364 47.1142 175.68 33.4261 158.801 33.4261C141.921 33.4261 128.238 47.1142 128.238 63.9993C128.238 80.8845 141.921 94.5725 158.801 94.5725Z" fill="#FFB8B8"/>
<path d="M174.413 102.872L141.707 104.343C141.707 104.343 144.437 121.263 126.742 122.872C109.048 124.481 92.9621 119.654 86.5278 131.722C80.0935 143.791 82.8669 186.763 82.8669 186.763C82.8669 186.763 94.9312 230.209 104.583 236.646C114.234 243.082 198.684 234.232 198.684 234.232L234.027 189.591L232.83 155.163C232.205 137.185 215.797 123.688 198.124 127.015C197.777 127.08 197.428 127.15 197.076 127.226C197.076 127.226 193.193 124.323 182.541 118.995C176.027 115.737 174.413 102.872 174.413 102.872Z" fill="#CACACA"/>
<path d="M103.418 122.068C103.418 122.068 111.191 136.177 107.974 156.291C104.757 176.405 118.256 218.945 118.256 218.945L127.907 216.532C127.907 216.532 121.473 174.695 123.081 165.04C124.69 155.385 125.134 126.895 117.091 122.068C109.048 117.24 103.418 122.068 103.418 122.068Z" fill="#474754"/>
<path d="M196.51 129.466L199.891 218.543L206.325 222.566C206.325 222.566 215.574 124.812 210.749 124.812H200.93C200.349 124.812 199.773 124.927 199.236 125.149C198.699 125.371 198.211 125.698 197.801 126.109C197.39 126.52 197.064 127.008 196.841 127.545C196.619 128.082 196.504 128.658 196.504 129.239C196.504 129.314 196.506 129.39 196.51 129.466Z" fill="#474754"/>
<path d="M122.679 216.934C124.9 216.934 126.701 215.133 126.701 212.911C126.701 210.689 124.9 208.888 122.679 208.888C120.458 208.888 118.658 210.689 118.658 212.911C118.658 215.133 120.458 216.934 122.679 216.934Z" fill="#6C63FF"/>
<path d="M203.108 220.957C205.329 220.957 207.129 219.156 207.129 216.934C207.129 214.712 205.329 212.911 203.108 212.911C200.887 212.911 199.086 214.712 199.086 216.934C199.086 219.156 200.887 220.957 203.108 220.957Z" fill="#6C63FF"/>
<path d="M132.661 25.7825V56.3557H139.739L148.747 46.701L147.541 56.3557H178.827L176.897 46.701L180.757 56.3557H185.744V25.7825H132.661Z" fill="#131317"/>
<path d="M127.836 61.9878C129.168 61.9878 130.249 60.0067 130.249 57.5628C130.249 55.1189 129.168 53.1377 127.836 53.1377C126.503 53.1377 125.423 55.1189 125.423 57.5628C125.423 60.0067 126.503 61.9878 127.836 61.9878Z" fill="#FFB8B8"/>
<path d="M189.766 61.9878C191.098 61.9878 192.179 60.0067 192.179 57.5628C192.179 55.1189 191.098 53.1377 189.766 53.1377C188.433 53.1377 187.353 55.1189 187.353 57.5628C187.353 60.0067 188.433 61.9878 189.766 61.9878Z" fill="#FFB8B8"/>
<path d="M256.708 270.149V272.844C256.709 273.583 256.572 274.317 256.304 275.006C256.185 275.313 256.041 275.61 255.873 275.894C255.344 276.782 254.594 277.518 253.695 278.028C252.796 278.539 251.78 278.807 250.747 278.807H52.5464C51.5128 278.807 50.4969 278.539 49.5982 278.028C48.6995 277.518 47.9489 276.782 47.4199 275.894C47.2526 275.61 47.1086 275.313 46.9894 275.006C46.721 274.317 46.584 273.583 46.5855 272.844V270.149C46.5853 269.366 46.7392 268.591 47.0385 267.867C47.3378 267.144 47.7765 266.487 48.3298 265.933C48.883 265.379 49.5398 264.94 50.2628 264.64C50.9857 264.34 51.7606 264.186 52.5432 264.186H63.971V262.929C63.971 262.897 63.9773 262.864 63.9897 262.834C64.0022 262.804 64.0204 262.777 64.0434 262.754C64.0664 262.731 64.0937 262.712 64.1238 262.7C64.1539 262.687 64.1862 262.681 64.2188 262.681H70.1804C70.2463 262.681 70.3094 262.707 70.356 262.753C70.4026 262.8 70.4289 262.863 70.429 262.928V264.186H74.1529V262.929C74.1528 262.897 74.1592 262.864 74.1716 262.834C74.184 262.804 74.2023 262.777 74.2253 262.754C74.2483 262.731 74.2756 262.712 74.3057 262.7C74.3358 262.687 74.368 262.681 74.4006 262.681H80.3623C80.4281 262.681 80.4913 262.707 80.5379 262.753C80.5845 262.8 80.6108 262.863 80.6109 262.928V264.186H84.3392V262.929C84.3392 262.897 84.3455 262.864 84.358 262.834C84.3704 262.804 84.3886 262.777 84.4116 262.754C84.4346 262.731 84.4619 262.712 84.492 262.7C84.5221 262.687 84.5544 262.681 84.587 262.681H90.5487C90.6145 262.681 90.6776 262.707 90.7242 262.753C90.7709 262.8 90.7971 262.863 90.7972 262.929V264.186H94.5211V262.929C94.521 262.897 94.5274 262.864 94.5398 262.834C94.5522 262.804 94.5705 262.777 94.5935 262.754C94.6165 262.731 94.6438 262.712 94.6739 262.7C94.704 262.687 94.7362 262.681 94.7688 262.681H100.731C100.796 262.681 100.86 262.707 100.906 262.753C100.953 262.8 100.979 262.863 100.979 262.929V264.186H104.703V262.929C104.703 262.897 104.709 262.864 104.722 262.834C104.734 262.804 104.752 262.777 104.775 262.754C104.798 262.731 104.826 262.712 104.856 262.7C104.886 262.687 104.918 262.681 104.951 262.681H110.912C110.978 262.681 111.041 262.707 111.088 262.753C111.135 262.8 111.161 262.863 111.161 262.929V264.186H114.889V262.929C114.889 262.897 114.896 262.864 114.908 262.834C114.92 262.804 114.939 262.777 114.962 262.754C114.985 262.731 115.012 262.712 115.042 262.7C115.072 262.687 115.104 262.681 115.137 262.681H121.099C121.165 262.681 121.228 262.707 121.274 262.753C121.321 262.8 121.347 262.863 121.347 262.929V264.186H125.071V262.929C125.071 262.897 125.077 262.864 125.09 262.834C125.102 262.804 125.121 262.777 125.144 262.754C125.167 262.731 125.194 262.712 125.224 262.7C125.254 262.687 125.286 262.681 125.319 262.681H172.013C172.045 262.681 172.078 262.687 172.108 262.699C172.138 262.712 172.165 262.73 172.188 262.753C172.211 262.776 172.23 262.803 172.242 262.834C172.255 262.864 172.261 262.896 172.261 262.929V264.186H175.99V262.929C175.989 262.897 175.996 262.864 176.008 262.834C176.021 262.804 176.039 262.777 176.062 262.754C176.085 262.731 176.112 262.712 176.142 262.7C176.172 262.687 176.205 262.681 176.237 262.681H182.199C182.265 262.681 182.328 262.708 182.374 262.754C182.42 262.801 182.447 262.864 182.448 262.929V264.186H186.171V262.929C186.171 262.897 186.178 262.864 186.19 262.834C186.203 262.804 186.221 262.777 186.244 262.754C186.267 262.731 186.294 262.712 186.324 262.7C186.354 262.687 186.387 262.681 186.419 262.681H192.381C192.413 262.681 192.446 262.687 192.476 262.699C192.506 262.712 192.533 262.73 192.556 262.753C192.579 262.776 192.598 262.803 192.61 262.834C192.623 262.864 192.629 262.896 192.629 262.929V264.186H196.353V262.929C196.353 262.897 196.36 262.864 196.372 262.834C196.384 262.804 196.403 262.777 196.426 262.754C196.449 262.731 196.476 262.712 196.506 262.7C196.536 262.687 196.568 262.681 196.601 262.681H202.563C202.595 262.681 202.628 262.687 202.658 262.699C202.688 262.712 202.715 262.73 202.738 262.753C202.761 262.776 202.78 262.803 202.792 262.834C202.805 262.864 202.811 262.896 202.811 262.929V264.186H206.54V262.929C206.54 262.897 206.546 262.864 206.558 262.834C206.571 262.804 206.589 262.777 206.612 262.754C206.635 262.731 206.662 262.712 206.692 262.7C206.723 262.687 206.755 262.681 206.787 262.681H212.749C212.814 262.682 212.877 262.708 212.922 262.755C212.968 262.801 212.993 262.864 212.993 262.929V264.186H216.721V262.929C216.721 262.897 216.728 262.864 216.74 262.834C216.753 262.804 216.771 262.777 216.794 262.754C216.817 262.731 216.844 262.712 216.874 262.7C216.904 262.687 216.937 262.681 216.969 262.681H222.931C222.964 262.681 222.996 262.687 223.026 262.699C223.056 262.712 223.083 262.73 223.106 262.753C223.13 262.776 223.148 262.804 223.16 262.834C223.173 262.864 223.179 262.896 223.179 262.929V264.186H226.903V262.929C226.903 262.897 226.91 262.865 226.922 262.834C226.935 262.804 226.953 262.777 226.976 262.754C226.999 262.731 227.026 262.712 227.056 262.7C227.086 262.687 227.119 262.681 227.151 262.681H233.113C233.145 262.681 233.178 262.687 233.208 262.699C233.238 262.712 233.265 262.73 233.288 262.753C233.311 262.776 233.33 262.804 233.342 262.834C233.355 262.864 233.361 262.896 233.361 262.929V264.186H250.747C252.327 264.185 253.843 264.813 254.961 265.931C256.079 267.048 256.707 268.565 256.708 270.146L256.708 270.149Z" fill="#17181D"/>
<path d="M420 278.112H-11V279H420V278.112Z" fill="#3F3D56"/>
<path d="M240.748 156.648H59.1949C58.5386 156.648 57.8888 156.777 57.2826 157.028C56.6763 157.279 56.1254 157.648 55.6614 158.112C55.1974 158.576 54.8293 159.127 54.5781 159.734C54.327 160.34 54.1978 160.99 54.1978 161.647V262.839C54.1978 264.164 54.7242 265.436 55.6614 266.373C56.5985 267.311 57.8695 267.838 59.1949 267.838H240.748C242.074 267.838 243.345 267.311 244.282 266.373C245.219 265.436 245.745 264.164 245.745 262.839V161.647C245.745 160.321 245.219 159.049 244.282 158.112C243.345 157.174 242.074 156.648 240.748 156.648Z" fill="#17181D"/>
<path d="M150.117 203.076C156.245 203.076 161.213 198.107 161.213 191.976C161.213 185.846 156.245 180.876 150.117 180.876C143.989 180.876 139.021 185.846 139.021 191.976C139.021 198.107 143.989 203.076 150.117 203.076Z" fill="white" fill-opacity="0.6"/>
<path d="M218.403 119L254.132 61.8978H271V61H253.895L253.813 61.1333L218 118.369L218.403 119Z" fill="#3F3D56"/>
<path d="M357.551 38.9795H292.649V44.7647H357.551V38.9795Z" fill="#3B5BFF"/>
<path d="M284.739 48.4229H271V34.6787H284.739V48.4229ZM271.888 47.5349H283.852V35.5667H271.888L271.888 47.5349Z" fill="#3F3D56"/>
<path d="M357.551 58.2637H292.649V64.0489H357.551V58.2637Z" fill="#3B5BFF"/>
<path d="M284.739 67.7069H271V53.9629H284.739V67.7069ZM271.888 66.8189H283.852V54.8509H271.888L271.888 66.8189Z" fill="#3F3D56"/>
<path d="M357.551 77.5477H292.649V83.333H357.551V77.5477Z" fill="#3B5BFF"/>
<path d="M284.739 86.9908H271V73.2468H284.739V86.9908ZM271.888 86.1028H283.852V74.1348H271.888L271.888 86.1028Z" fill="#3F3D56"/>
</svg>
